<svg xmlns="http://www.w3.org/2000/svg" width="1000" height="1000" viewBox="0 0 1000 1000" xml:space="preserve">
  <g fill-rule="evenodd" clip-rule="evenodd">
    <path d="M794.2 373.1a59 59 0 0 1-24.1-23.5c-9.8-19.4-25-27.8-43.7-32.2-21.6-5.1-41.9-1.5-62.8 5.7-22.3 7.7-38.3 23-51.5 43.1-4.2 6.3-3.2 9.5 3.4 12.9 3.9 2 8 4.4 10.9 7.7 2.2 2.5 2.7 6.8 3.6 9.3-14-1.9-26.8-3.3-39.5-5.4-22.3-3.8-36.8 8.1-47.4 28.1q-7.4 14.4-14.6 28.9c-4.1 8.2-3 10.5 5.3 11 17.1 1.1 31.1 10.3 45.1 19.6l-.6 2.9c-4-1.1-8.4-1.4-12-3.3-15.1-7.8-30.6-13.5-47.5-10.5-20.5 3.7-41 8.9-52 31.1-11.4 23-16.5 47.5-2.3 71.6 8.2 14 22.1 19.3 36.1 21.5 8.9 1.4 18.3-1 27.4-2.1 4.7-.6 6.9-3.4 6.5-9.3-3-41.6 17.7-68 47.6-87.7a40 40 0 0 1 20.5-4.5c-9.2 4.8-18.5 9.4-27.5 14.6a32 32 0 0 0-10.1 8.9c-6.1 8.7-12.5 17.4-17.2 27.1-10 20.8-7.6 61.7 22.9 72.2 13.4 4.6 27.3 8.6 41.2 10.1 19.3 2.2 37-3.9 52.3-17.8 11-10 14.5-23.6 14.7-37.8.2-13.4-.1-27.2-6.5-39.7-9.1-18-33-32.3-51.7-30.2q-6.3.6-12.6.9l-1.1-2.6c2.4-2 4.6-5.2 7.2-5.9 15.4-3.6 30.9-4.4 43.7 8.2 13.1 13 39.3 13.4 52 1.8q10.5-9.4 22.6-16 47.7-25.5 91.8 7.3c6.9 5.2 10.5 18.1 6.6 26.3-4 8.4-8.9 16.2-13.8 24.1-5 8.1-10.7 15.7-15.6 23.9-7.9 13.4-21.2 15.3-31 3.3-4.9-6.1-8-13.9-12.9-20-5.3-6.6-10.9-14.1-17.9-17.6a69 69 0 0 0-50.3-4.7c-5.6 1.5-6.1 6-5.4 11.3 2 13.8 4 27.8-.8 41.2-3 8.5-6.5 17.2-11.8 24.1-15.1 19.8-36 27.1-58.3 31.4-7.5 1.4-14.5 5.6-21.9 7.6-12.9 3.5-26.2 9.8-38.8 8.6-15.7-1.5-31.2-8.7-46.3-15-24.7-10.3-38.7-34.2-53.1-56.3-10-15.3-6.5-34.4-3.2-52a97 97 0 0 1 33.2-57c-5.7-3.5-10.6-6.3-15.3-9.5-5-3.4-10.3-6.5-14.7-10.8-5.1-5-9.6-3.6-12.2 1.6-4.7 9.3-9.4 19.1-11.9 29.3a56 56 0 0 1-17.4 30.2c-2.7 2.3-7.9 3.5-11.1 2.3a241 241 0 0 1-30.7-13.9c-20.6-11.1-21.7-40.1-2.4-54a167 167 0 0 1 77.2-29.8c2.3-.3 6.7 1.3 7 2.9 4.2 19.1 19.6 27 30.9 38.9 2 2.2 3.8 4.7 6.1 6.4 1.8 1.4 4.3 1.9 6.5 2.5.6.2 1.5-.7 2.2-.7 21.7 1.2 26.1-18.9 34.5-34 3.6-6.5 6.3-13.7 10-20.1 11.3-19.3 26.2-32.2 47.9-34.4 3.6-.4 8.2-3.5 10.2-6.9a127 127 0 0 1 51.4-51.1c35.6-17.8 71.9-21 107.9-2.2a53 53 0 0 1 16.7 17.7c6.6 9.7 12.1 20.3 17.8 30.7 1.4 2.5 1.9 5.5 2.8 8.2q-1 .9-2.2 1.5"/>
    <path d="M224 431c-14.9 1.4-65.7 41.9-69.3 55.1 9.4.6 18.8.4 28 2 6.2 1.1 12.1 4.3 17.9 7.1 1.3.6 1.7 3.5 2.5 5.3-2.1.4-4.7 1.9-6.1 1-22.6-15.3-44.6-11.4-66.4 1.8l-23 13.6c-24.2 14.8-38.1 47.8-24 76.7 5 10.2 8.9 21.1 14.8 30.6 11.8 19 29.6 28 49.6 32.5 37.6 8.5 67.5-5.7 91.9-37.1 3-3.9 7-6.8 11.3-11-13.1 28.9-35.9 43.8-59.1 57.6-17.2 10.2-36.2 7.4-54.4 4.1a76 76 0 0 1-59.4-46.1 160 160 0 0 1-11.5-42.9c-2.8-22.4 8.3-39.7 22.1-54.6a163 163 0 0 1 52.7-36c1.6-.7 4.1-2.2 4.1-3.3-.2-9.4 6.7-13.1 11.8-17.8q26-24 52.4-47.5c6-5.4 12.7-10 18-16 10.8-12.2 20.8-25.1 31.1-37.8q4.6-6 9-12l2.3 1.7c-5.8 12-10.7 24.7-17.6 35.9-22.8 37.2-30.2 79.4-33.9 123-1.1 13.1 5.8 22.9 11.8 32.5a136 136 0 0 0 38.3 42.5c21.5 14.5 43.8 14.6 66.9 7.7 29.5-8.8 58.9-18.2 88.4-27.2 4.3-1.3 8.7-1.8 13.1-2.7l1.1 2.1c-1 1.6-1.8 4.2-3.2 4.8-6.3 2.4-7.8 8.2-8.4 14.1a510 510 0 0 0-2.6 37.1q-.4 23 .2 45.9c.3 13.3 1.3 26.6 1.3 39.9 0 3.5-1.7 9.1-4 10.2-4.9 2.3-6.6-2.9-7.2-7.2q-3.8-27.7-7-55.5-3.8-32.4-7.1-65c-.6-6.2-3-7.3-8.3-5.6q-25 8.3-50.3 15.9c-5.6 1.7-9.2 4.7-8.6 11.9 1.2 12.9 1.1 26 3.6 38.5 4.5 22.9 11 45.3 12 69 .2 5.5 2.2 12-5.8 12.9-7.6.8-7.1-5.9-7.6-10.9a321 321 0 0 0-21.1-82.4c-3.5-9.1-8.5-17.4-13.4-25.8-1.3-2.2-4.4-3.5-6.9-4.3-11.8-3.6-24.2-5.7-35.4-10.9a56 56 0 0 1-18.9-16.9c-9.2-11.8-17.2-24.7-25.7-37.1a48 48 0 0 1-6.4-38.1c5.2-26.3 11.2-52.4 16.9-78.5q-.3-.6-.5-2.8M660.2 682.6c-2.3 12.6-5.4 24.8-6.6 37.2-1.5 14.9-1.5 29.9-2 44.9-.2 5.9-1.6 11.7-7.4 11.8-2.7 0-6.6-4.5-8.1-8-3.2-7.4-4.8-15.6-7.8-23.1q-6.1-15-13-29.5a22 22 0 0 0-19-13.5c-19.5-1.7-34.7-12.7-48.7-26.7q-6.3-5.9-1.4-12.5c3.6-5 7.1-2.5 10.6.7 15.3 13.6 31.2 26.5 51.9 27.2 17.6.7 35.7 1.6 50.4-14.2-1.8-2.6-4.2-4.8-4.9-7.5-.7-2.6-.6-6.6.8-8.3 1.2-1.3 4.9-.5 7.3.3 1.6.5 2.9 2.4 4 3.9 18 23.4 42.4 32.9 68.6 36.1a88 88 0 0 0 54.7-11.2c6.9-3.9 12.7-9.9 19.1-15q.7-.5 1-1.3c5.3-19.3 21.1-19.7 34.8-21.9 21.5-3.5 41.1-12.1 54.3-30.3 10.1-14 15.4-32.3 22.2-49 7.9-19.4 5.5-39.3.5-59.1-.7-2.8-2.3-5.4-4.2-9.8-3.2 4.3-5.5 7.2-7.5 10.2q-7 10.7-14.2 21.2c-1.3 1.8-3.8 2.6-5.8 3.8l-2.2-2c1.9-3.9 3.4-8.2 5.9-11.5a98 98 0 0 0 21.5-46.3c5.5-37.1 3.1-71.5-21-102.1a102 102 0 0 0-67.4-40c-8.4-1.3-17.3 1.1-26 1.9q-4 .4-8 1.1l-1.2-2.5c1.8-1.5 3.5-4.1 5.5-4.3 12.5-1.5 25.2-4.3 37.6-3.3 23 2 44.7 9 61.9 28.1 10.7 11.9 20.8 23.7 26.2 40.2q7.6 23 5.7 46.6c-1 12-3.4 23.9-4.8 35.9-.4 2.9-.1 6.4 1.1 9a109 109 0 0 1 2.2 86.3q-6.8 18-14.3 35.6a71 71 0 0 1-27.3 33.7c-6.3 3.8-9 10-9.9 17.2-2.2 18.2-3.8 36.4-6.3 54.5-.5 3.3-4.2 6-6.4 9-1.6-2.7-3.5-5.3-4.8-8.2q-3.4-8-6.3-16.2-5.4-15-11.2-29.9c-3.5-8.6-8.5-10-14.1-3a27 27 0 0 0-5.8 15c-.3 12.7 1.2 25.4 1.4 38.2.1 3-2 6.1-3 9.2-2.4-1.3-5.5-2-7.1-4.1-5.4-6.7-10.2-14.1-15.5-20.9-4.5-5.8-10-8.8-17-4.4a61 61 0 0 1-37.5 10.2c-2.9-.2-7.4 2.5-8.8 5.3-4.7 9.2-8.3 19.2-12.6 28.7-1.4 3.2-3.7 6-5.5 9-2.4-2.4-6.2-4.3-7.1-7.2-3.8-12.3-6.6-24.9-10-37.4-.6-2.3-1.4-5.3-3-6.3-11.2-6.9-22.1-13.6-34.5-21.5M425.8 197.4c2.6 0 5.2-.7 7.4.1 17.6 6.9 35.6 13.1 52.5 21.5 16.4 8.2 21.2 28.3 15.4 46.9-5.5 17.6-16.1 30.6-26.8 44.1-1.9 2.4-4.4 7.5-3.6 8.7 3.3 4.8 7.4 11.5 12 12.3 14.5 2.5 24-9.1 33.8-18.6 3.2-3.1 5.9-7.1 9.4-9.7l85.6-65.1 6.1-4.3 1.8 2.4c-3.5 3.5-6.8 7.2-10.5 10.3l-25 21c-1.4 1.2-2.7 2.7-4.2 3.6a210 210 0 0 0-65 66.2c-4 6.2-8.6 12-12.7 18.1-4 5.8-4.8 11.5-.4 17.8a55 55 0 0 1 9 39.3c-.3 3-1.9 5.8-2.9 8.7-2.2-2.4-5.1-4.3-6.4-7.2-9.1-20-17.7-40.3-27-60.2q-5.7-12-13.1-23c-1.1-1.7-5.7-2.9-7.1-1.8a201 201 0 0 1-88.4 39.4c-12.2 2.3-24.1 5.3-36.5 3.5-24.9-3.7-46.1-16.9-66.3-32.2a70 70 0 0 1-23.1-27.8c-13.7-30.8-.5-77.5 30.1-91.9 2.6-1.2 4.6-3.8 7.2-4.9 3.9-1.8 8.1-2.9 12.1-4.3l.6 2.1c-6.5 3.5-12.7 7.7-19.4 10.4-11.3 4.5-16.4 15.6-19.9 25.8-9.9 28.8-3.7 56.5 19.3 75.8a301 301 0 0 0 30.8 22.3c22.7 14.6 46.5 16.5 72.8 12.1 37.1-6.1 67.4-24.1 95.1-50.3 13.7-12.9 20.8-30.1 27.4-47.6 4.4-11.8-6.1-33.8-19-40.1-14.5-7.1-29.6-12.6-44.4-18.7l-5.7-2.3c-.5-.2-.5-1-1-2.4"/>
    <path d="M375 186.7c-2.5 3.2-4.7 6.8-7.6 9.6-2.1 2-5.3 4.2-7.6 3.8-1.8-.3-3.3-4.4-4.5-7q-1.8-4.3-3.2-8.9c-2.5 1.8-5.5 3-7.4 5.4-3.8 4.8-6.6 10.5-10.6 15-2.1 2.3-7.5 4.8-8.5 3.8-7.1-7-13.4-14.9-19.9-22.6-.4-.5.2-2 .7-6 5.2 5.8 9.3 10 12.9 14.6 6.8 8.7 7.7 8.6 14.8.8a212 212 0 0 1 17.3-16.9c6.5-5.7 11.4-3.5 12.4 5.7 1.4 12.9 7.7 2.3 11.5 3zM138.4 616.2c-12.5 2.2-33-15.2-35.1-26.8-2.4-12.8 0-23.2 7.9-27.3-3.8 25.4 12 38.9 27.2 54.1M330 252.9c1 1.6 3.9 4.3 4.2 7.3.6 6-10.2 14.7-16.9 13.9-2-.2-5.1-3.1-5.3-5-.9-7.1 8.8-16.4 18-16.2M611.8 532.1c1.1 1.7 4.5 4.6 5.1 8.1 1 5.9-7.5 13.4-13.8 12.3-2.5-.5-6-3.7-6.4-6.2-1.1-6.4 6.4-14.3 15.1-14.2"/>
    <path d="m125 577.2 24.7 27.8c-7.7 2.4-18-2.2-24.4-11.7-3.9-5.8-3.9-10.2-.3-16.1M507.2 531.8c-.8-1.3-3.2-3.6-3.4-6-.4-6 6.8-13 12.8-12.9 4.2 0 7.6 1.6 7.6 7.2 0 5.4-7.8 11.6-17 11.7M375.1 187c4.1-5.2 7.9-10.7 12.3-15.4 1.1-1.2 5.4-1.2 6.1-.1 4.2 6.5 8.4 3 12.8.8q5.7-2.9 11.6-4.2c-6.8 5.2-13.3 11.3-20.6 15.2-3.8 2-9.3.1-14 0l-.2-2.8zq0-.1 0 .1M388.1 261.5c-3.7-2.6-7.7-3.9-7.8-5.6-.3-2.7 2.1-5.7 3.3-8.5q.2-.4.6-.5c5-.9 10-2.1 15-2.5.7-.1 2.6 4.8 2.2 5.3q-6.2 6-13.3 11.8"/>
  </g>
</svg>
