<svg xmlns="http://www.w3.org/2000/svg" width="1000" height="1000" viewBox="0 0 1000 1000" xml:space="preserve">
  <path fill-rule="evenodd" clip-rule="evenodd" d="M516 825.2q1.6 22.8 3.4 45.6c1.3 15.3-18 49.5-31.3 48a86 86 0 0 1-42.9-20.9c-35.7-30.9-69.1-64.5-104.1-96.2a22782 22782 0 0 0-207.8-185.9c-12.4-11-28.1-18.2-41.4-28.3-31.4-23.7-30.3-58.7 1.8-82.5 23.8-17.7 48.7-34.1 70.7-53.8 38-34 77.3-67.3 110.3-105.8 47-54.9 88.6-114.5 133.1-171.6q31.6-40.5 65.5-79.3c15.6-17.8 31-16 37 6.6a348 348 0 0 1 9.2 78.4c.9 27.4-1.7 54.9-2.7 82.3-.6 16 7.7 22.9 22.9 19.9q38-7.5 75.5-17.2c31.6-8.3 62.9-18 94.3-26.9 40.9-11.6 81.9-22.7 122.6-35 24.4-7.4 41.2.5 49.5 24.9 3.1 9.2 8.3 17.8 11.9 26.9 3.3 8.3 9.1 17.5 8.1 25.5-8.1 60.8 7.9 119.3 14.1 178.8 5.6 54.4 2.5 109.6 4.5 164.4 1.6 42.3 4.9 84.6 8.1 126.9.7 9.8 5.4 19.2 6.2 29 1.7 20.1-10.7 33.7-30.3 35.3-61.8 5.2-122.7-1.4-183.5-12.1-20.9-3.7-42.6-3-63.7-6.4-28.5-4.5-56.7-10.9-85-16.6-2.2-.4-4.3-1.7-6.4-2.4-39.1-11.5-47.9-5.2-48.3 34.6v13.7z"/>
  <path fill-rule="evenodd" clip-rule="evenodd" fill="#fff" d="M116.2 550.3C135 562 149.6 569 161.6 579Q295.2 691.7 428 805.5c5.5 4.8 7.8 13.2 13 18.5 9.5 9.6 20.1 18.2 30.2 27.2l6.8-4.1c.7-11 .8-22 2.1-32.9 4.4-37.8 8.6-75.6 14.4-113.1 1-6.7 9.6-12.2 14.7-18.2 5.2 5.4 9.8 11.5 15.7 15.9 7.3 5.4 15.3 12 23.8 13.4 60.1 9.5 120.5 17.6 180.8 26.6 40.7 6.1 81.2 13.6 122 19.6 29.2 4.3 32.8-1.4 30.7-30.4-2.2-29.6-.6-59.4-1.2-89.1-1.2-51.6-1-103.4-4.8-154.9-3-41.7-11.4-83-16.6-124.5-3.6-28.7-5.4-57.7-8.5-86.4-1.5-14-9.7-20.8-23.9-16.2-27.5 8.9-54.7 18.4-82.1 27.5-21.6 7.2-43 15.6-65.1 21.2-52.2 13.4-105.1 24.3-157.1 38.4-33.8 9.2-42 6.3-42.5-29-.6-41.8 2.3-83.6 3-125.4.2-12.4-2-24.8-3.2-37.3-111.1 143.6-206.4 295.3-364 398"/>
</svg>
