<svg xmlns="http://www.w3.org/2000/svg" width="1000" height="1000" viewBox="0 0 1000 1000" xml:space="preserve">
  <path fill-rule="evenodd" clip-rule="evenodd" d="M150.4 249.3q44.5 7.2 89.2 14.1c48.3 7.2 96.6 14.9 145.1 20.9 25.1 3.1 26.3-2.2 25.4-27.2a1430 1430 0 0 1 1.7-134.2c1.5-24.4 23.1-29.4 48.9-12 16.2 10.9 30.8 24.2 45.7 36.8 64.8 54.7 128.2 111.2 194.6 163.9 45.3 36 94.8 66.5 142 100.1q39.9 28.3 77.6 59.1c12.7 10.5 17 24.3 1.5 37.4-29.8 25.1-60.4 49.3-89.2 75.5Q730.6 676.5 629.6 771c-29.6 27.7-57.7 57-86 86.1-6.7 6.9-10 17.2-17.2 23.3-11.1 9.4-23.7 21.9-36.6 23-9.9.9-26.7-11.5-30.7-21.9a929 929 0 0 1-37.5-116.1c-5.5-22.1-12.1-28.8-34.4-19.6-64.6 26.7-130.2 51.3-194.7 78.2-32.8 13.7-50.9 8.1-57.1-27.2-7.5-42.5-9.5-85.9-14.3-128.8C110 567.5 98.9 466.9 86.8 366.5c-2-16.8-8.7-33.1-13.6-49.5-11.4-38 6.9-63.5 47.3-65.3 9.8-.4 19.6-.1 29.4-.1z"/>
  <path fill-rule="evenodd" clip-rule="evenodd" fill="#fff" d="M112.8 283.6c2.1 13.9 3.3 21 4.2 28 15 113.2 30.3 226.3 44.8 339.6 4.8 37.1 6.9 74.6 11.3 111.7 2.1 17.3 10.4 22 29 15.4 57.5-20.6 115.8-38.8 173.8-58.1 15.4-5.1 33-7.6 45.4-16.9 20.8-15.5 24.9-3.3 29.6 12.7 9.8 33.7 19 67.5 29.3 101 8.9 29.1 15.5 31.9 39.7 11.4 32.9-27.9 63.3-58.7 95.4-87.6 59.9-53.9 121.3-106.2 180.1-161.4 28.1-26.4 51.6-57.9 76.8-86.6-25.1-14.4-57.2-29.4-85.4-49.7-93.6-67.3-177.4-146.1-260.4-225.8-23.5-22.6-50.1-42.1-75.3-63l-8.7 4.9 11.3 86.1c3.8 29.9 8.2 59.7 10.9 89.7.6 7-4.3 14.6-6.6 21.9q-11.8-4.5-23.5-9.3c-16.5-7.3-32.3-18.5-49.5-21.5-64.1-11.2-128.6-19.5-192.9-29.2-24.8-3.8-49.4-8.3-79.3-13.3"/>
</svg>
