<svg xmlns="http://www.w3.org/2000/svg" width="1000" height="1000" viewBox="0 0 1000 1000" xml:space="preserve">
  <path fill-rule="evenodd" clip-rule="evenodd" d="M535.7 340.9c-14.4 20.1-29.9 39.6-42.9 60.6-10.2 16.4-25.5 27.5-37.5 41.8-13.5 16.1-27.7 31.7-41.1 47.9-4 4.8-7.1 10.7-9.3 16.6-5.2 13.7-4.4 27.1 7.3 37.4 9.2 8.2 18.7 16.7 29.5 22.3 29.1 15.4 58.6 30.2 88.7 43.6a476 476 0 0 0 61.8 21.7 893 893 0 0 0 72 16.6c17.1 3.3 34.6 4.6 51.9 7.2 12.5 1.9 19.9-7.1 28.6-13 8.9-6 16.6-13.1 27-18a49 49 0 0 0 25.1-34.7c2.1-10.2 1.5-20.9 2-31.4.4-7.2-3.4-8.9-9.5-6.6a825 825 0 0 0-33.8 13.8c-6.7 2.9-9.5 1.8-11-5.3-2.7-13 8.4-26.3 21.9-27.4 9.1-.7 18-2.9 27-4.5 5.1-.9 6-4.7 5.2-8.8-3.3-15.7-6.2-31.5-10.6-46.9-4.3-14.9-10.2-29.3-15.4-43.9-.3-.8-.9-1.5-.9-2.3l-.2-12.3c3.2 2 7.4 3.3 9.4 6.1 5.4 7.6 10.6 15.5 14.6 23.9 3.4 7.2 8.1 9.2 15.3 7.7 20.6-4.2 41.2-8.7 61.9-12.2 7.2-1.2 14.9-.3 22.3.3 2.2.2 4.1 2.9 6.1 4.5-1.8 1.9-3.3 5.2-5.4 5.6-16.1 3.8-32.5 6.4-48.5 10.6a326 326 0 0 0-35.6 12.4c-1.7.7-3.1 4.8-2.8 7.2 1.4 11.8 3.8 23.5 4.9 35.3.6 6.7 4.3 7.8 9.5 7.1 13.2-1.7 26.3-3.9 39.6-5.4q22.2-2.5 44.4-4.2c1.9-.2 4 1.1 6 1.6-1 2-1.6 5.3-3.2 5.9-8.9 3.6-18 7.3-27.3 9.6-19.9 4.7-40 8.6-60.1 12.6-6.6 1.3-10.2 3.7-9.6 11.5a79 79 0 0 1-14.5 54.3c-8.1 10.8-18.7 20-28.9 29-7.8 6.9-17.1 12.1-25.1 18.8-12.6 10.4-26.6 15.8-42.9 12.4-6.4-1.3-9.2.8-10.3 7-2.8 15-7.4 29.8-8.4 44.9-.9 13.5 2.3 27.3 3.1 41q1.1 19.8 1.1 39.5c0 2.7-1.8 6-3.8 7.8-1 .9-6.2-.7-6.5-1.9-3.4-13.9-7.3-27.8-8.8-42-3.5-31.9-5.5-63.9-8.7-95.8-.3-2.6-4.4-6.2-7.3-6.9-22.6-5.4-45.6-9.3-68-15.3a730 730 0 0 1-59.2-19.3c-6.3-2.3-9.8-1.2-12.8 4.3-12.9 23.4-27.2 46.2-30.1 73.7-.1 1.4-.2 3.1-1 4-9.2 10.4-15.8 23.2-29.8 28.8-12.3 4.9-24.3 10.7-36.2 16.4-15.9 7.7-31.5 15.9-47.4 23.4-6.6 3.1-13.7 5.1-21.3 8-.9-8.6 2.9-12.9 8.4-15.3 18.5-8.2 37.4-15.5 55.6-24.3a505 505 0 0 0 46-25.8c3.9-2.5 6.4-8.3 8-13.2 5.8-17.6 11.6-35.2 16.3-53.1a293 293 0 0 0 7-38.3c.3-2.4-3.6-6.4-6.4-8-19-10.2-38.5-19.6-57.4-30-13-7.1-24.8-16.1-30.7-30.4a47 47 0 0 1 1.2-38.8c11.7-25.8 31.1-45.7 50.2-65.8 7.4-7.8 15.9-14.7 22.9-22.9q19-22.5 36.7-46.1c7.9-10.3 14.7-21.4 22.3-31.9 1.7-2.3 4.6-3.7 7-5.4q.7 1.6 2.4 2.7M123.9 213.1l30.3 4.8q24.6 4 49.3 7.1c8.5 1.1 8.9-.7 8.6-9.2a462 462 0 0 1 .6-45.6c.5-8.3 7.9-10 16.6-4.1 5.5 3.7 10.5 8.2 15.5 12.5 22 18.6 43.6 37.8 66.1 55.7 15.4 12.2 32.2 22.6 48.3 34q13.6 9.6 26.4 20.1c4.3 3.6 5.8 8.3.5 12.7-10.1 8.5-20.5 16.8-30.3 25.6q-34.8 31.6-69.1 63.7-15 14.3-29.2 29.3c-2.3 2.3-3.4 5.9-5.8 7.9-3.8 3.2-8.1 7.4-12.4 7.8-3.4.3-9.1-3.9-10.4-7.4a303 303 0 0 1-12.7-39.5c-1.9-7.5-4.1-9.8-11.7-6.7-22 9.1-44.2 17.4-66.2 26.6-11.1 4.6-17.3 2.8-19.4-9.2-2.5-14.4-3.2-29.2-4.9-43.8q-5.6-51.2-11.7-102.5c-.7-5.7-3-11.2-4.6-16.8-3.9-12.9 2.4-21.6 16.1-22.2h10zm-12.8 11.7 1.4 9.5q7.7 57.7 15.2 115.4c1.6 12.6 2.4 25.3 3.9 38 .7 5.9 3.5 7.5 9.8 5.2 19.5-7 39.4-13.2 59.1-19.7 5.2-1.7 11.2-2.6 15.4-5.7 7.1-5.3 8.5-1.1 10.1 4.3q4.9 17.1 10 34.3c3 9.9 5.3 10.8 13.5 3.9 11.2-9.5 21.5-20 32.4-29.8 20.4-18.3 41.2-36.1 61.2-54.9 9.6-9 17.5-19.7 26.1-29.4-8.5-4.9-19.4-10-29-16.9a828 828 0 0 1-88.5-76.8c-8-7.7-17-14.3-25.6-21.4l-3 1.7 3.8 29.3q2.2 15.3 3.7 30.5c.2 2.4-1.5 5-2.3 7.4q-4-1.5-8-3.2c-5.6-2.5-11-6.3-16.8-7.3-21.8-3.8-43.7-6.6-65.6-9.9z"/>
  <path fill-rule="evenodd" clip-rule="evenodd" d="M599.2 202c-6.5 3.5-13.3 6.7-19.6 10.5-35.2 21.2-43.6 59.1-31.4 95 9.4 27.8 29.2 48 51.7 65.8 27.1 21.4 57 36.7 91.8 39.7 30.4 2.6 60.6.7 87.8-15.3 22.3-13.1 36-31.8 34.5-59.1q-1.1-23.2-2.7-46.4c-.2-2.6-2.1-5.1-2.2-7.7s.8-5.4 1.2-8c2.6 1.2 6.9 1.9 7.5 3.8a77 77 0 0 1 4.3 21c.6 17.1 1.1 34.4-.3 51.4a49 49 0 0 1-8.8 22.6 110 110 0 0 1-53.6 40.1 179 179 0 0 1-116.4 5.4 164 164 0 0 1-58.6-32.3c-20.5-16.8-37.7-36.4-46.8-61.5a104 104 0 0 1-1.4-74.1c3.3-8.6 9-16.5 15-23.6 10.5-12.5 21.4-25 38.5-28.7 2.9-.6 6-.6 9-.9q.4 1 .5 2.3"/>
  <path fill-rule="evenodd" clip-rule="evenodd" d="M733.6 226.6q-3.5 16-6.4 32.2c-.6 3.5.3 7.3.6 10.9 2.9-.6 6-.8 8.8-1.7 12.8-4.1 25.5-8.7 38.5-12.5 2.2-.7 5.2 1.5 7.9 2.3-1.9 2-3.5 5-5.8 5.8a129 129 0 0 0-50.6 30.9c-2.8 2.8-8.5 3.3-12.8 3.3-1 0-2.9-6.7-2.8-10.2.6-12.1 1.9-24.2 2.8-36.4.1-1.3-.1-2.6-.3-5.7-4.2 3.2-7.6 5.4-10.5 8.1-9.7 8.9-20.9 16.6-24.2 30.8-.8 3.4-11.4 7-14.4 4.9-5.1-3.5-1.3-6.8.5-10.5q8.4-17.7 16.1-35.6c.6-1.3.3-3 .6-7.1-12.7 12.8-28.4 18.9-36.1 34-1 1.9-2.1 4.4-3.9 5.2-3 1.4-6.6 1.8-10 2.6-.5-2.8-1.9-5.8-1.3-8.3q3.6-16 7.8-32l-2.2-1.4c-7 8.2-14.5 16.1-20.7 24.8-7.2 10.1-13 21.1-20.1 31.3-1.9 2.7-6 4-9 5.9-1.3-3-3.2-5.8-4-8.9-5.6-23.9 4.4-45.2 11.4-66.9 4.4-13.8 16.6-21.8 27-30.9.7-.7 2.1-.8 3.1-.9.7-.1 1.5.4 3.9 1.2-17.9 21.6-31.2 44.7-30.8 73l2.5 1.7c6.3-7.4 12.3-15.1 19.1-22q14.6-14.6 30.3-28.2c1.3-1.2 4.5-.3 6.8-.4-.1 2 .2 4.2-.4 6.1q-6.2 18-12.6 35.7l2 1.6c2.3-1.5 4.9-2.9 7-4.7q17.6-15.2 35.4-30.2c2.1-1.7 5.3-2.2 8-3.2.8 2.8 2.6 5.8 2.1 8.3-1.5 7.2-4 14.2-6.5 22.8 13.8-10.3 25.9-21.4 41.1-27.3q1 .7 2.1 1.6M738.7 341.2q-7.8 1.2-8.1-6.8c-.2-6.9 7.5-15.3 14.6-15.4 6.1-.1 12.2 1 13.2 8.4 1.2 8.3-6.3 13.3-19.7 13.8M780.2 323.4c-1-1.4-3.8-3.7-4.3-6.4-1-5.8 7.7-14.8 13.1-14.7 4.9.1 9.9 6 9.7 11.5-.1 5.6-6.7 9.5-18.5 9.6"/>
</svg>
