<svg xmlns="http://www.w3.org/2000/svg" width="1000" height="1000" viewBox="0 0 1000 1000" xml:space="preserve">
  <path fill-rule="evenodd" clip-rule="evenodd" d="M305.2 198.3c-.3 2.3-.2 4.8-.9 7-3.8 12.3-8.5 24.4-11.7 36.8a388 388 0 0 0-7.2 37.2c-1.9 12.9-4.1 26-4 39 .1 14.9-.4 30.9 4.9 44.2 5.3 13.6 17 24.8 26.5 36.6 9.1 11.3 19.2 21.9 28.3 33.2 6.2 7.6 10.2 8 16.6.9q9.4-10 19.2-20l2.2 1.8-6.3 8.7-18.9 25.4q-1.2 1.6-1.6 3.4c-.6 11.6-8.9 19.8-13 29.8-4 9.8-7.2 19.9-10.6 30-5.1 14.9-11.4 29.6-14.6 45-3.5 17.2-4.5 35-5.7 52.6a55 55 0 0 0 4 26.1 24 24 0 0 0 17.3 15.6c18.4 4.4 36.6 10 55.8 9.6q3.3-.1 6.2.6c15.5 5 31.7 4.2 47.6 4.8 10.5.4 21.1-2.1 31.7-1.9 15.1.2 30.2 1.5 45.3 2.8 4.9.4 8.7 1.9 13.5-2.4 4.1-3.6 11.2-3.8 17-5.3 18.3-4.6 34-14.2 48.1-26.4 6.8-5.9 9.4-14.2 10.9-23.2 3.2-18.6-2.8-35.9-6.1-53.6a205 205 0 0 0-24.8-64.3c-2.8-4.8-4.4-10.3-6.5-15.5q-7.2-17.9-13.9-36.1a110 110 0 0 1-5-18.5c-.5-2.7 1.2-5.7 1.9-8.5l2.1-.1q1.1 2.3 1.9 4.5 2 6.5 4.4 12.9c1.4 3.6 3.2 7.5 7.6 3.7 13.1 25.9 36.7 40.7 57.3 58.1 14.4 12.2 30.8 22 46.2 32.9 5.5 3.8 11.2 3.3 17.3 1.6a70 70 0 0 1 36.9-2.5 62 62 0 0 1 46.8 43c2.8 8.7 7.7 16.8 9.3 25.7 1.8 10 3 20.9.9 30.7a286 286 0 0 1-15.7 51.2c-7.2 17.4-22.4 27.9-39 36.2-22.5 11.3-46.3 12.6-70.5 9-7-1.1-14-5.5-19.7-10.1a217 217 0 0 1-26.9-25.6c-4-4.6-5.4-11.5-7.2-17.7-.6-2.1 1.2-4.8 2.2-8.4 5.1 8.3 8.9 15.2 13.4 21.5 9.4 13.3 22.8 21.6 36.9 29.1q1.6.9 3.6 1.2c34.4 3.5 66.7-.1 91.4-28.2 8.4-9.5 11.7-21.5 15.5-33.1 4.2-13 9.2-26.2 5.3-40.2a172 172 0 0 0-9.6-27.5 152 152 0 0 0-17.6-30.6c-7.5-9.4-19.2-13.4-30.9-16.5-14.4-3.9-27.5 1.3-40.6 5.6-14.2 4.7-25.9 13.7-37.6 22.7 6.3-11.5 18.3-16.5 29.9-24.7a157 157 0 0 1-45.5-27.7 761 761 0 0 0-40.3-34.1c.5 1.5.6 3.3 1.5 4.5 18 25.8 23.5 56 30.7 85.7 4.1 16.9 3.3 33.8 1.5 50.7-1.7 16.3-12 26.7-26.1 34a246 246 0 0 0-15.1 8.6 9 9 0 0 0-3.9 4.5q-9.2 29-17.8 58.4-9.6 33.9-18.8 67.9c-.3 1.2-.4 2.8-1.2 3.4q-2.8 2-6.1 3.7c-.6-2-1.7-4.1-1.6-6 .6-8.1 1.9-16.1 2.3-24.2.4-6.8-.1-13.6.1-20.5.5-21.2 3.5-42.3-.5-63.5-.9-4.6-2.4-6.6-7.1-6.5-21 .3-42-.6-62.7 4.5-6 1.5-12.4 1.4-18.6 1.7-3.3.2-5.7.5-5.9 4.5-.8 17.2-3.2 34.4-2.1 51.5 1.3 20.2 5.6 40.2 8.6 60.3.3 2 1.3 4.6.5 6.1a16 16 0 0 1-6.2 6.7c-.9.5-4.8-2.5-5.7-4.7q-4.8-10.8-8.3-22.2c-6.5-21-12.3-42.3-19.1-63.3-3.3-10.3-9.5-19.7-11.9-30.1-2.8-11.9-9-14.9-20.5-16-16.2-1.5-32.8-3.6-47.6-11.5a32 32 0 0 1-16.5-21.6 133 133 0 0 1-.1-53.4c2.8-17.6 6.2-35.3 11.2-52.4 6-20.8 13.6-41.1 21.1-61.4 2.7-7.1 2-12.3-2.7-18.3-11.2-14.1-22.6-28.2-32.5-43.3-15.1-23-25.2-47.9-24.1-76.1q.8-19.4 2.6-38.6c.5-4.9-.6-7.7-5.6-9.4-6.3-2.1-12.9-4.8-13.1-13.1-.2-10.3 2.2-20.1 11.6-25.4a38 38 0 0 0 17.8-20.6q6.2-15 12.9-29.7c.6-1.3 1.9-2.4 2.8-3.6z"/>
  <path fill-rule="evenodd" clip-rule="evenodd" d="m399.2 266.2-12.8 9.4c-12.9 9.7-17.4 24.4-22.7 38.6a87 87 0 0 0-5.4 34.1c.8 27.6 28.2 55.4 52.7 60.4a186 186 0 0 0 89.3-1.5c14.3-4 28.7-8 40.6-16.9 22.7-16.9 38.4-38.4 40.7-67.8l1.7-18c1.7-21.5-9.3-35.9-26.3-46.8-2.6-1.7-6.1-2.4-3.6-6.8 2.2-4 5.3-4.6 8.9-2.6 17 9.8 33.9 30.6 29.9 53.9-2.4 13.9-4 28-6.8 41.8-1.1 5.3-4.6 10.1-7 15.2l-5.1 10.6q-.6 1.9-1.6 3.4l-15.4 17.5a90 90 0 0 1-33.6 21.8 185 185 0 0 1-57.6 14.8c-23.2 1.7-47.2 2.4-69-6.2-11.5-4.5-21.3-14.9-30.1-24.4-10.4-11.3-13.1-25.9-14.8-41.4-2.6-25.4 8.1-46.3 18.6-67.3a42 42 0 0 1 29.4-21.8M752 252.8l-4.1-111q-.2-3.7-.7-7.5c-.5-5.6 1.2-9.8 6.4-13a282 282 0 0 1 68.3-31c8.1-2.4 16.1-5.6 24.3-7.6 7.4-1.8 12.4 2 11.4 9.6a74 74 0 0 1-6.9 24.2c-11.8 22.6-20.2 46.4-28.8 70.3-6.6 18.4-13.2 36.8-16.2 56.1-1.3 8.3-1.2 16.9-.9 25.3.2 5.4.2 9.6-5.9 12-11.1 4.3-21.9 9.5-33.1 13.9-5.4 2.1-9.7-.2-10.6-6-1.8-11.7-2.9-23.5-4.4-35.2zm9.2-24.8-1.2.1c1.3 14.3 2 28.6 4 42.8 1.3 9 2.1 8.9 11.1 7.3 13.1-2.3 13.4-2.3 15.9-15.3a341 341 0 0 1 20.7-69.1c7.4-17.3 13.4-35.3 20.6-52.7 4.7-11.2 11-21.8 15.4-33.1 1.4-3.6.3-9-1.5-12.7-2.2-4.5-6.8-3.2-11.1-1.7-15.7 5.4-31.6 10.1-47.1 15.9-9.8 3.7-19.2 8.8-28.5 13.8-2.2 1.2-4.6 4.4-4.7 6.6q-.4 17.5.8 34.8 2.6 31.6 5.6 63.3M789.8 406.8c-19.3.7-38.3-18.2-33.5-39.7 4.1-18.4 14.6-32.6 34.6-38.1 16.7-4.6 28.8 2.1 39.6 13.2 2.6 2.7 4.8 7.5 4.5 11.2-1.1 14.5-2.7 29.1-13.6 40.4a22 22 0 0 1-6.7 4.4q-12 5.3-24.3 10.3-.1-.9-.6-1.7m7.2-13.4c.7 0 2.2 0 3.6-.2 10.5-1.3 19.2-6.4 22.5-16.4 3.2-9.7 6.6-20.2-3.2-29.6-11.7-11.3-27.4-13.7-39.5-5-2.1 1.6-4.6 2.8-6.6 4.5-2.5 2.2-5.9 4.3-6.9 7.2-6.8 18.6 8.9 39.6 30.1 39.5"/>
  <path fill-rule="evenodd" clip-rule="evenodd" d="M433.1 231.6c5.6 11 7.8 23.2 17.2 33.2 4.4-7.4 8.4-13.9 12.1-20.5 3.3-5.8 6.2-11.7 9.6-17.4 1.1-1.8 3.2-3 5.5-5.2 2 9.7 3.5 17.8 5.5 25.9.6 2.4 2.6 4.4 4 6.5q3.1-2.3 5.8-4.9c4-4.4 7.5-9.4 11.8-13.4 1.6-1.5 5.2-2.1 7.2-1.4 4.2 1.5 7.4.9 11.1-1.3q23.5-13.4 47.2-26.5 1.2-.6 2.6-1.1l.9 1.3q-4 3.4-8.4 6.6-22 14.9-43.8 29.8c-5.1 3.5-10.1 6.1-16.8 4.8-4.7-.9-10.2 4.2-12.8 11-1.8 4.6-3.1 11-8.6 10.6-2.3-.2-4.6-7.3-6.2-11.5-1.7-4.7-2.5-9.6-3.9-14.4-.5-1.6-1.3-3.2-2.6-6.1l-9.1 15.4-11.3 20.1c-2.2 3.8-5.1 4.7-7.3.1q-7.6-15.7-14.3-31.8c-1.1-3.6-.6-7.6 4.6-9.8M753.9 613.2c-3.9 20.7-6 42-19.4 59.5-2 2.6-5.5 4.3-8.5 5.9-.8.4-2.5-.7-3.7-1.1q.8-1.8 1.9-3.3c4.4-5.1 10.1-9.6 13-15.4 7.7-15.3 13.3-31.4 9.8-49.2v-.6l3.5-8.4q2 3.7 3.5 7.6c.3 1.5-.1 3.3-.1 5M503.2 335.3c-3.3-.1-5.3-2-4.4-6q2.4-10.4 12.1-14.9c3.9-1.8 7.6.8 7.7 5.1.2 5.5-9.5 15.7-15.4 15.8M439.4 318.7c.1 7.2-10 14.8-16.9 12.5-1.3-.4-2.7-3-2.7-4.7-.1-5 6.7-13 11.7-14.3 4.1-.9 7.8 2.2 7.9 6.5M711.4 665.6c4-6.9 9.6-14.3 12.6-22.6 3.1-8.3 3.7-17.5 5.5-26.9 7.1 13.1-5.4 43.9-18.1 49.5"/>
</svg>
