<svg xmlns="http://www.w3.org/2000/svg" width="1000" height="1000" viewBox="0 0 1000 1000" xml:space="preserve">
  <path fill-rule="evenodd" clip-rule="evenodd" d="M675.1 843.1c1.2-5.7 2.6-10.5 3.2-15.3 4.7-36.5 16.1-72.1 15.8-109.3l.1-1.6c.8-14.9.5-15.7-14.4-13.7-20.5 2.7-40.8 5.8-61.6 4.7q-29.7-1.3-59.6-1.6c-9.8-.2-10.6 1.1-11.1 11-.8 17.1-3.1 34.3-2.3 51.3.6 11.9 5 23.7 8.2 35.5 4.2 15.6 9.1 31 13.1 46.7.7 2.6-1.2 7.8-3.2 8.6-3 1.3-8.3 1.1-10.8-.9a42 42 0 0 1-15.8-28.5c-1.8-11.9-5.9-23.4-3.5-35.9.7-3.5-1.3-7.8-2.7-11.5l-23.9-61.4-2.6-6.7c-3.5-9.8-10.1-12.8-20.6-13.2-16.8-.7-33.7-3.2-50.3-6.3-18.2-3.5-28.4-17.4-31.1-35.7-3.6-24.7 3.6-47.3 11.1-70 2.1-6.3 4.8-12.4 7-18.7.6-1.8.4-3.9.5-5.8-2-.1-4.1-.5-6-.1-10.8 2.3-21.5 5.4-32.5 7-6.4.9-13.2 0-19.8-.9-8-1.1-11.3-7.5-13.2-14.4q-6-22.3-11-44.8c-1.3-6.2-4-8.3-9.8-6.9-16.7 4.2-29.2-3.2-37.2-16.5a345 345 0 0 1-40.2-88.8 31.4 31.4 0 0 1 12.5-36.3c19.5-14.5 38-30.5 57.6-44.9a52 52 0 0 1 41-11.4c3.8.7 5 1.8 5.4 5.9 2.1 20.8 4.2 41.6 7.3 62.3a772 772 0 0 0 10.6 56.2c2.2 9.7 6 19.1 9.7 28.4 3.2 7.9 1.7 10.6-6.1 13.9-10.6 4.5-20.7 10.2-31 15.5-1 .5-2.1 2-2.2 3.1a82 82 0 0 0 5.1 43.6c5.5 12.4 20.6 17.4 33.8 11.6 7-3.1 13.7-7.1 20.7-10.2 4.8-2.1 9.9-4.4 15.1-4.8 8.4-.7 12.4-4.9 15.6-12.3q18-40.3 36.8-80.3c1-2.2 2.7-4.1 5.9-5.3-.3 1.9-.3 3.9-1 5.7-7.4 19-14.6 38.1-22.6 56.9-12.3 29-25.7 57.5-37.3 86.8-5.6 14.1-9 29.4-11.7 44.4a63 63 0 0 0 1.2 25.2 28 28 0 0 0 24.1 22.6c17.5 2.8 35.1 5.5 52.8 6.9q46.8 4 93.7 6c22.7 1 45.4.8 68.2.4a490 490 0 0 0 88.5-11.7 188 188 0 0 0 47.7-15.6 99 99 0 0 0 34.8-26.8 51 51 0 0 0 8.8-42.3c-4.5-17.8-11-34.6-17.9-51.6-10.6-26.1-28.5-47-43.3-70.1-2.8-4.3-6.3-4.9-9.5-.6-6.2 8.2-12.5 16.2-18 24.8q-16.3 25.4-31.3 51.6c-4.6 8.2-7.4 17.5-11.1 26.3-1 2.4-1.5 5.6-3.3 7.1-2.6 2.1-6.2 3-9.4 4.4-.1-3.1-1.3-6.6-.3-9.2 6.9-17.8 14.5-35.3 21.2-53.1 8-21.3 15.3-42.8 23-64.2q2.6-7.6 5.9-14.8c2.7-5.9 1.5-10.2-3.1-14.9a129 129 0 0 1-15-19.4 15 15 0 0 1-1.3-10.5c1.7-6.2 8.1-7.2 12.3-2.2 23.2 27.4 47 54.4 69.2 82.6a199 199 0 0 1 36 72.1c3.7 13.7 6.2 27.8 10.2 41.4 3.2 11.1-1.2 20.2-5.3 29.7-2 4.5-2.4 9.8-4.8 14.1a26 26 0 0 1-8.3 8.1c-3.7 2.5-8.7 3.5-12 6.4a146 146 0 0 1-66.7 36.7c-2.1.5-4.8 1.7-5.9 3.4q-4.9 8-8.9 16.6l-21.2 44.3c-5.4 11.2-12.1 22-16 33.7-4.6 13.7-7.3 28.2-10 42.5-1.6 10.6-4.4 14.3-16 15M327.4 488c1-.3 4.4-1.1 7.5-2.5q14-6.4 28.1-13c14-6.3 14-6.2 10.4-21.5l-1.3-7c-5-38.9-10.3-77.7-14.8-116.7-.9-7.9-4.8-10.5-10.8-7.8-16.3 7.4-33.1 14.4-47.8 24.3-12.9 8.7-22.8 21.9-35 31.8-6.5 5.3-7.5 10-4.4 16.9.8 1.7 1 3.6 1.8 5.2q21.3 39 43 77.6a24 24 0 0 0 23.3 12.7"/>
  <path fill-rule="evenodd" clip-rule="evenodd" d="M403.3 310.8c7.2-6.7 9.8-19 23-22.5-.7 4.4-.7 8.1-1.8 11.4-7.9 24.4-.7 45.2 14.3 64.6 12.3 15.9 30.7 23.2 47.1 33.1 19.8 12.1 42.2 15.1 64.9 18.8 42.2 6.8 79.8-5.5 116.5-22.5 15.8-7.3 31-17.8 38.6-34.4 5.9-12.9 9.9-26.8 12.9-40.7 6.6-30.8-.7-60.1-12.1-88.6-2.3-5.7-6.8-10.7-10.9-15.5a158 158 0 0 0-16.3-17.4 385 385 0 0 0-29.9-24.2c-5.2-3.7-8.2-7.8-4.7-13s8.3-2.2 12.6.4c22.5 13.9 39.3 33.8 56 53.7 3.2 3.8 3.5 9.8 5.7 14.6 8.3 18.4 12 38 12.6 57.9.8 30-2.7 59.7-20.4 85.1a89 89 0 0 1-26.1 24 330 330 0 0 1-53.4 27.7 196 196 0 0 1-112.2 10.3c-30.3-6.1-55.4-21.3-79.7-38.1-17.1-11.8-25.6-30.7-29.1-51.3-1-5.7-.6-11.7-1.8-17.4-1.1-5.1-3.6-10-5.8-16M480.3 168.6c1.1 6.4 1.8 12.9 3.3 19.2.6 2.5 2.8 4.6 4.2 6.8 1.6-1.9 4-3.6 4.8-5.8q5.5-15.3 10.6-30.8c.7-2 .9-4.4 2.2-5.9 1.9-2.3 4.5-4 6.8-5.9 1.1 2.5 2.7 4.9 3.3 7.5 1.3 5.7 1.7 11.6 3.1 17.2.6 2.2 2.7 4.1 4.1 6.1 1.6-1.6 3.7-2.8 4.8-4.7q7.2-12.8 14.2-25.7c.8-1.5 2.3-2.7 5.7-3.8q.6 4 .8 8.1c-.1 7.7-.8 15.3-.5 23 .1 2.5 1.9 6.2 3.9 7 1.8.7 5.5-1 7.4-2.7q18-16.7 35.8-33.8c1.4-1.3 3.3-2 4.9-3l1.7 2c-2.7 2.3-5.7 4.3-8.1 7q-14.9 16.5-29.6 33.1c-1.9 2.2-3.4 5-5.7 6.6-4 2.8-8.5 4.8-12.7 7.2q-3-6-5.5-12.3c-1.1-2.9-1.5-6.1-4.2-10q-3 4-5.6 8.4c-2.7 5.1-4.8 10.6-7.8 15.6-1.2 1.9-4.1 2.7-6.2 4-1.1-2-2.7-3.8-3.3-6-1.3-5.1-2-10.4-3.3-15.6-.7-2.7-2-5.2-3-7.8l-2.4-.3q-4.7 13-9.5 26c-3.1 8.1.4 19.3-12.5 24.3-2-6.3-3.5-12.4-5.8-18.1-1-2.6-3.6-4.7-5.4-7-1.6 2.2-3.7 4.1-4.7 6.6q-7.5 20-14.8 40.2c-2.3 6.4-8.5 8.4-12.9 3.5-7-7.9-13.2-16.4-19.4-24.9a10 10 0 0 1-1.9-6.7c.6-3.6 2.3-7.1 3.6-10.6 2.5 2.2 5.4 4.1 7.5 6.6 3.3 3.8 5.9 8.2 9 12.1 3.8 4.6 8 4.5 10.7-.9 7.5-14.9 14.5-30 21.9-45 2-4 4.6-7.7 6.9-11.5q2 .2 3.6.7M234.1 343c-8.5-3.5-17.2-6.3-25-10.6q-16.6-9.2-32.5-19.7c-2.9-1.9-6.1-5.3-6.7-8.5-.7-3.6.9-8 2.7-11.4.5-.9 6.1-.4 8.3 1.1a2367 2367 0 0 1 54.6 39.5c1.9 1.4 2.6 4.7 3.4 7.2.1.2-2.8 1.4-4.8 2.4M219.8 372c-1.9 1-3.6 2.5-5.6 3q-27 7.2-54.3 13.6c-3.8.9-11.5.5-11.7-.6-1.2-5.8 2.3-9.9 7.8-12 16.1-6 32.1-12.7 49.9-10.1 4.7.7 9.3 2.1 13.9 3.3zM237.1 234.1c8.8 10.5 16.1 74 10.5 83.3l-5.1-14.4c-5.5-16.9-10.7-33.9-10.2-51.8.2-5.1 2.8-10.1 4.8-17.1"/>
  <path fill-rule="evenodd" clip-rule="evenodd" d="M566.6 293.9a23 23 0 0 1-19 20.5q-9.1 1.1-10.4-8c-1.8-12.2 6.5-23.5 17.6-23.6 6.9-.1 12 4.7 11.8 11.1M501 322.2c-.1 13.4-7.6 22.8-18.2 22.7-5.5 0-10.9-5.9-10.7-11.6.3-10.8 10.8-21.3 20.9-20.9 4.9.2 8 4 8 9.8M336 470.8c-9.1.2-13.4-4.1-10.3-12.8a59 59 0 0 1 12-18c1.3-1.5 6.6-1.1 9.1.2 6.6 3.5 9.8 12 7.9 18.4-1.8 6.2-10.7 12-18.7 12.2"/>
</svg>
