<svg xmlns="http://www.w3.org/2000/svg" width="1000" height="1000" viewBox="0 0 1000 1000" xml:space="preserve">
  <path fill-rule="evenodd" clip-rule="evenodd" d="M663.4 588.9c12 54.4 18.5 119.3 44.1 179.9q18.6 44.4 33.8 90.1c7.9 23.5-1.7 36.3-26.2 39.3-8.5 1.1-16.7 4.2-25.1 5.3q-27.8 3.3-55.7 5.6c-4.5.4-9.2-.7-13.8-.2-41.6 4-83.1 7.9-124.6 12.5-49.7 5.5-99.3 13.7-149.1 16.8-26.6 1.7-53.7-4.5-80.5-7.6-10.3-1.2-20.4-4.6-30.6-4.7-16.8-.3-23.6-8.9-21-24.1 6.6-39.1 12.2-78.5 22.2-116.8 17.4-66.4 37.9-132 56.8-198.1 6.1-21.4 2.9-25.2-19.3-26.8-28.6-2.1-57.6-2.5-85.8-7.2-38.5-6.4-44.3-25.2-21.4-56 34.3-46.1 71.1-90.7 100.1-140 19-32.3 45.9-56.7 66.9-86.5 30.7-43.6 62.2-86.6 93.1-130.1A2539 2539 0 0 0 473 73.5c8.2-12.3 17.5-14.1 25.7-1.9 12.1 17.9 24.5 36.2 32.8 56 15 35.9 41.7 62.3 65.9 91.4 40.3 48.5 78.2 98.9 116.9 148.8 31.3 40.4 61.9 81.4 93.6 121.5 6.1 7.7 15.9 12.8 24.4 18.3 9.5 6.2 19.7 12.6 15.2 25.6-4.5 13.3-16.8 13.1-27.7 10-44.5-12.7-88-2.5-131.4 5.4-24.5 4.5-25.3 6.9-25 40.3"/>
  <path fill-rule="evenodd" clip-rule="evenodd" fill="#fff" d="M187.5 500.1c8 3.6 10 5.1 12.1 5.4 28.5 3.1 56.9 7.3 85.5 8.6 25.1 1.2 42.7 11 53.7 33.6 5.3 10.8 3.7 19.1-3.7 28.4a130 130 0 0 0-19.4 31.7c-6.8 16.9-10.3 35.2-16.7 52.3-21.3 56.9-31.2 116.4-40.5 176-5.7 36.5 3.3 49.5 39.5 51.4 28.5 1.5 57.3.1 85.7-2.9 80.5-8.6 160.8-19 241.3-27.8a235 235 0 0 1 47.4 1c9.7 1 15-1.7 15.1-11.1a83 83 0 0 0-3.1-22.1c-6.3-23.2-15.3-45.9-19.4-69.5-11.7-68-21.6-136.2-32.1-204.4-3.6-23.6.4-29.7 23.8-35 33.4-7.5 66.9-14.6 102.7-22.4-3.3-5.4-5.9-10.8-9.6-15.4-21.9-27.3-44.4-54.2-66.2-81.6-35.2-44.6-69.8-89.7-105.1-134.3-20.6-26-46.2-48.2-57.8-80.9a442 442 0 0 0-23.8-53.6c-3.3-6.5-10.4-15-16-15.2s-11.9 8.6-16.7 14.5c-5.3 6.6-8.7 14.8-13.9 21.7-19 25.2-38.9 49.7-57.3 75.3-9.6 13.4-15.8 29.3-25.6 42.6-39.5 53.5-86.1 102-112.3 164.8-3.6 8.5-11.5 15.6-18.4 22.4-15 14.9-30.9 29.3-49.2 46.5"/>
</svg>
