<svg xmlns="http://www.w3.org/2000/svg" width="1000" height="1000" viewBox="0 0 1000 1000" xml:space="preserve">
  <g fill-rule="evenodd" clip-rule="evenodd">
    <path d="M290.7 839.3c-4.8 3.9-9.5 9.3-15.4 11.9-8.2 3.6-19-2.3-23.6-12.2a70 70 0 0 1-6.1-19.3 210 210 0 0 0-23.5-69.4c-7.3-13.6-7.7-14.2-23.1-12.5a29 29 0 0 1-30.4-16.9q-9.7-19-19.9-38a34 34 0 0 0-7.9-8.7c-8.2-7.3-8-16.3-5.3-25.8s5.2-19.2 8.9-28.4a404 404 0 0 1 16.6-36c12.1-23.5 23.9-47.2 37.3-69.9 6.4-10.8 15.9-19.8 24.3-29.3 1.3-1.4 5.2-2.7 6.2-1.9 7.8 5.9 15.8 1.2 23.5.6 33.6-2.6 67.1-5.7 100.7-8.3a2396 2396 0 0 1 75.6-4.8 4182 4182 0 0 1 112.1-3.4q43.5-.6 86.9.3c36 .6 72 1 107.9 2.7 21.8 1.1 43.6 4.4 65.4 6.8 5.9.6 8.3 2.8 10.3 9.6a380 380 0 0 0 20.1 52.6c9.2 20.1 20.4 39.3 30.2 59.2 7.2 14.6 7 29.1.2 44.4-4 8.9-4.9 19.1-6.7 28.8-2.5 13.3-4 26.8-7.1 39.9-.6 2.8-5.7 5.7-9.2 6.4a47 47 0 0 1-18.7.9c-10.6-2.1-14.5 4.5-17.4 11.9-4.8 12.4-8.7 25.1-12.8 37.7l-12.7 39.3a6 6 0 0 1-3.7 3.6c-6.5 1.8-13 3.6-19.7 4.5-1.4.2-4.5-3.1-4.9-5.2-3.1-15.9-5.1-32-8.8-47.7a107 107 0 0 1-1.9-48.8q.6-3.1 1-8c-8.6-1-16.8-2.4-25-2.7-23.2-1.1-46.5-2.5-69.7-2.3q-54.4.8-108.7 3.2c-25.5 1.1-51 3.4-76.5 4.9-31.5 1.8-63.1 2.6-94.5 5.2-22.6 1.9-45 5.8-67.4 9.5-2.4.4-5.4 5.1-5.8 8.1a323 323 0 0 0-3 32.7c-.7 14.3 1.1 29.2-2 42.9-2.6 11.6.4 20.7 4.2 31.9M315.3 685v-1.4c5.8 0 11.5.5 17.2-.1 32.5-3 65-7.3 97.6-9.2s65.3-1.7 98-2.1c30-.4 60.1 1.3 89.9-.9q73.1-5.6 145.9-14.9c24-3 48.7-4.9 70.1-19.4 13.2-9 16.4-14.7 9.7-29.2-5.2-11.1-11.5-21.7-16.7-32.8q-12.2-26.2-23.3-52.9c-3.6-8.6-5.4-18-8.6-26.8-4.7-12.8-6.9-13.6-20.5-12.3q-11.6 1.3-23.3 1c-9.3-.4-18.6-2-27.9-2.7q-12-.7-24.1-.6l-53.7.9c-2.3 0-5 .3-6.8-.7a37 37 0 0 0-29.6-2.4c-4.2 1.1-8.9.7-13.3.4-11.4-.9-22.9-4.1-33.5 3.2q-1 .5-2.3.3c-17.2-1.1-34.3-6.2-51.7-1.2-1.6.5-3.6-.7-5.4-.7q-5.8.1-11.6.4l-23.9 1.1q-7.7.2-15.3.8c-3.4.3-6.7 1.4-10.1 1.3-16-.3-31.9 1.5-48 .9-31-1.1-62.2.8-93.3 2.3-23.5 1.1-46.9 3.3-70.3 5.2-1.7.1-4.1.6-5 1.8-5.3 7.3-11.6 14.3-15.2 22.4-5.1 11.9-7.2 25.2-12.4 37-6.1 14-14.5 27-21.3 40.7a890 890 0 0 0-22 47.5c-5.2 12.3-4.5 13.1 7 19.7q2 1.3 4.2 2c13.7 4 27.3 8.8 41.3 11.6 19.9 4 40 7.4 60.2 9.3 16 1.6 32.1.5 48 .5m-140.8-1.8-2.6 2.2q10.6 19.4 21.3 38.8c.7 1.3 2.9 2.7 4.3 2.7 11.2-.4 22.5-.2 33.5-2 11.8-1.9 23.1-6.7 34.8-8.8 15.1-2.6 30.5-4 45.8-5.6 41.6-4.2 83.2-9.1 124.9-12a2301 2301 0 0 1 114.4-4.2c49.7-.9 99.4-1.7 149.1-1.1 27.6.3 55.3 3.1 82.8 5.8 13.7 1.3 27.3 4.8 40.8 7.5 5.9 1.2 9.2.1 10-6.8q2-16.8 6.1-33.1c2-7.5-1.8-10.4-7.4-10.6-6.8-.2-13.7 1.7-20.6 2.9-3.8.7-7.5 2.1-11.3 2.6l-55.8 7.3c-9 1.2-18 3.3-27.1 4q-35.9 2.7-71.8 4.7c-30.7 2-61.4 4.7-92.1 5.8-23.2.8-46.4-1.5-69.6-.7-32.3 1.1-64.6 3.6-96.9 5.9-22.4 1.6-44.7 4.6-67.2 5.9-23.7 1.4-47.6 3.3-71.1 1.7-22.5-1.5-44.7-7.3-67.1-11.2zm623.8 29.9-19.6-2.9c-5.6-.9-8.8 2.2-9.6 7a422 422 0 0 0-3.8 31.7q-1.6 21-2.4 42.1c-.1 2.8.7 5.6 1.1 8.4l3.4.5zM266.8 833.3l2.2-1.4c0-6.3.4-12.6-.1-18.9-.7-8.6-2-17.1-3-25.6-1.7-14-2.8-28-5.3-41.8-2.7-15.1-3.3-15-18.2-13.3-8.8 1-8.9 2-5.7 10.3 7.7 19.3 17.9 37.7 20.3 58.9q1.2 11.3 4.1 22.3c.9 3.4 3.7 6.3 5.7 9.5m487.1-125.2c-7.7 6.8-8.5 28.1-1.5 39.3 4.3-11.6 5.2-34.3 1.5-39.3M277 770.6l3 .1q.2-19-.2-38.1c0-1.7-2.9-3.3-4.4-4.9-1.2 2-3.7 4-3.5 5.8 1.4 12.4 3.4 24.8 5.1 37.1M585.5 207.1c22-3.4 40.7 4.1 55.5 20 8.6 9.3 16.5 19.9 22.2 31.1a39 39 0 0 1 .2 34c-4.2 8.9-8.6 17.7-14.1 25.8-4.4 6.5-10.7 11.8-18.2 19.9 8.7-4.8 11.4-1 13.9 4.2 5.7 11.9 13.3 16.4 26.8 14.8 19.3-2.3 37-10.5 52.8-20.9 7.6-5.1 11.3-16.4 16.2-25.3 7.1-12.9 8.5-27.2 9.6-41.6q.4-5.1 3-10.2c6.3 6.7 5.7 14.7 4.7 22.4a95 95 0 0 1-14.6 40.1c-8.2 12.6-6.2 30 4.2 37.4 3.7 2.6 10.1 4 14.3 2.7 3.2-.9 6.3-6.8 6.8-10.8 1-8.2.7-16.6.2-24.8q-1.1-18.3-3-36.6-.3-4-1.7-7.5c-4.1-10.7.9-20.3 12.1-22.6 5.6-1.1 11.4-1.2 17.1-1.9 11.5-1.5 15.9-9.9 11-22.5-7.8 15.8-21.4 10.9-34.3 11.7-14.2.9-24.3-5.2-33.8-14-9.1 13.2 5.2 13.8 9.8 21.2-3.3 0-5.6.4-7.6-.1-2.2-.6-4.1-2.3-6.4-2.9-9.7-3-9.8-4.1-6.4-13.6 5.5-15.1 10.1-30.6 15.4-45.8 1.1-3.2 3.3-6 5.6-10 5.2 7 5.6 13 3.7 19.6-3.3 11.5-2.9 22 7.6 30.4 5 4 8 3.7 9.8-2.1 3.6-11.4 6.7-23 10.2-34.5 1-3.2 2.7-6.2 4.1-9.2l3.3.2c.7 3.7 2.4 7.7 1.8 11.2-1.9 9.9-5.5 19.6-7 29.6-.7 4.5 1.8 9.6 2.9 14.4 5.2-1.7 11.9-1.9 15.2-5.3 5.2-5.5 8-13.2 11.8-20q2.5-4.3 5.2-8.7c1.8 1.4 2.6 1.7 2.6 2-1.4 16.1 2.8 32.9-7 47.9a22 22 0 0 1-19.5 10.8c-18.7.3-19.4 1.7-16.6 20.2 2.5 16 5 32 5.7 48.1a70 70 0 0 1-5 25.7c-3.8 11.1-26.9 16.7-37 8.5-6.5-5.3-10.8-13.1-17.3-21.3-10.6 6.5-24.4 12.4-34.8 22-9.6 8.9-15.5 21-7.8 35.9a74 74 0 0 1 6.1 44.4c-.4 3.2-3.2 7.8-5.9 8.8-4.9 1.7-6.5-2.8-8.2-7.1-10.3-26.7-16-55.1-30.3-80.3-5.3-9.5-9.6-19.6-14.6-30-4.3 2.4-9.2 4.3-13.2 7.3-22.2 16.7-48.7 16.6-74.4 19.9-5.2.7-10.4 1.5-15.6 1.6-28.7.9-56-4.3-81.5-18.1-10.5-5.7-20.8-11.5-31.6-16.6-2.4-1.2-7.5-1-8.9.6-12.5 15-28.8 27.9-29.9 49.8-.1 2.1-2.1 4-3 6.1q-2.5 5.5-4.6 11.2c-.7 1.9-.5 4.4-1.6 5.9-8.1 10.5-8 23.5-11.5 35.4-.8 2.7-3.6 4.9-5.4 7.3-1.4-2.2-3.4-4.1-4-6.5-3-10.7-2.9-21.1.3-32.3 3.4-12 4.2-26.1-3-36.3-7.5-10.6-15.9-21.7-28.8-27.5-6.3-2.9-9.6-.7-11.4 4.9-2.6 8.2-4.1 16.8-7 24.9a400 400 0 0 1-13 31.8c-2.8 6.2-8.4 8.1-14.5 5.1a89 89 0 0 1-16.6-10.3c-5.5-4.5-8.1-10.7-3.8-17.4 8.1-12.7 16.1-25.5 25.1-37.6 7.6-10.2 14.8-20.2 16.3-33.3.8-6.8-1.6-10.6-8.2-11.7q-4.7-.6-9.3-1.6c-8.7-2.2-11.6-10.9-5.6-17.5 9.4-10.5 19.9-20 28.5-31 7.6-9.6 13.4-20.5 19.7-31.1 3.2-5.4 5.2-11.3 8.1-16.9q12.9-25.5 26.4-50.7c1.7-3.2 5.4-5.3 10-9.5.8 5 2.1 7.9 1.6 10.6q-2 10.3-4.9 20.5c-4.3 16.7-8.2 33.5-13.3 50-7.1 23.2-15.1 46.2-22.8 69.2q-3.9 11-7.5 22.3c-1.9 6.3.1 9.6 6.7 13.2a207 207 0 0 1 35.1 24.6c10.6 9.1 10.6 10 19.2-.9 7.5-9.6 14.4-19.8 21.7-29.5 4.2-5.6 2.9-10.1-.8-15.6a67 67 0 0 1-9.3-19.7c-5.1-20 2.6-36.9 15.4-51.5 7.8-8.9 17.2-16.6 26.2-24.5q3.3-2.7 8.9-2-12.6 12.3-24.8 25a49.5 49.5 0 0 0-4.7 56.3c18.5 29 46 46 77.5 56.8 29.3 10.1 59.6 9.6 89.9 4.8a111 111 0 0 0 71.7-43.7 68 68 0 0 0 13.9-40.7c.1-2.5-.7-5.3-1.9-7.5a101 101 0 0 0-30.8-34.5c-10.5-7.2-19.9-15.5-32.5-18.8-1.7-.4-3.1-1.8-4.7-2.7q1-2 1.9-3m-288 104.7c15.4-23.6 35.4-91.4 30-102.6-3 3.9-6 7-8.2 10.6-5 8.2-9 17.2-14.7 24.8-9 11.8-19.3 22.6-28.7 34-6.6 8-4.8 14.4 4.5 18.5 2.4 1.1 4.8 2.4 7.3 2.6 6.4.4 10.4 2.8 9.8 12.1M256 386.2c.4 1.8.2 3.4 1 4.2q5.4 5.3 11 10.4c2.1-3 5.1-5.8 6.2-9.1a736 736 0 0 0 10.3-35.9c.5-1.7-1.2-4-1.8-6.1-2 .8-4.8 1.1-5.9 2.6a613 613 0 0 0-18.6 26.9c-1.5 2-1.6 4.8-2.2 7"/>
    <path d="m561.2 203.7 11.7-7.8 1.8 1.6c-3.2 4-5.9 8.6-9.8 11.7-7.5 5.9-14.5 3.5-17.7-5.5-1.3-3.6-2-7.5-3-11.3q-2.7-10.8-12.2-5.1c-6.1 3.6-11.9 7.6-18 11.1-7.7 4.5-13.1 2-14.9-6.7-.8-3.9-1.3-7.9-2.2-13.2-3.1 2.3-5.1 3.1-6.2 4.6-6.6 9.2-15.5 16.8-18.3 28.7-.8 3.5-5.1 7.1-8.7 8.7-1.6.7-6.3-3-7.9-5.7a437 437 0 0 1-15.7-29.4c-2.5-5.1.4-8.7 4.8-10.7 5.1-2.4 7.2 1.9 8.6 5.4 2.7 6.5 4.6 13.3 7.4 19.8 1 2.3 3.8 5.9 5.1 5.6 2.6-.5 5.2-3 7-5.3 7.3-9.4 14-19.3 21.8-28.3 2.7-3.2 7.9-5.9 11.8-5.7 2.2.1 4.8 6.5 5.8 10.4 2.8 10.1 3.1 10.7 13.1 7 5.6-2.1 11-4.7 16.6-6.9 7.7-3.1 11.6-.8 13.6 7.1 1.5 6.3 3.4 12.5 5.5 19.9M487.9 295.3c-.2 8.2-4.6 13.2-11.4 12.9-8.7-.3-15.2-6.1-15.3-13.4 0-5.5 4.6-9.6 10.8-9.3 12.7.4 16.1 2.5 15.9 9.8M555.5 312.7c-3.1-2.3-8.2-4.1-8.9-7-.7-3.2 1.9-7.8 4.2-11 3.7-5.2 9.3-8.4 15.2-4.2 2.6 1.9 4.8 7.2 4.2 10.4-1.4 6.5-6.1 10.8-14.7 11.8M509.1 515.6c14.3 0 26.6.1 38.8-.1 4.4-.1 9-.3 13.1-1.5q23-6.7 29.8 16.5c.8 2.6 2.9 4.7 3.8 7.2s2 5.6 1.2 7.7c-4.6 11.6-8.3 24-15.1 34.3a55 55 0 0 1-21.9 17c-7.8 3.8-17 5-25.7 6.5a35 35 0 0 1-32-11.2c-6.5-6.4-14.3-11.8-19.4-19.1a186 186 0 0 1-16.9-31.4c-1.1-2.6 1.4-8.2 3.9-10.7 10.2-10.1 23.5-14.5 40.4-15.2m59.8 40.9-9 .8-12.2 1.4c-9.7.9-19.5 1.4-29.1 2.7-6 .8-7.3 5.1-4 10.4 1.3 2.1 3.5 4.6 3.2 6.6-1 6.8 3.4 9.7 8.3 9.7 7.3-.1 15-1.1 22-3.5 13.6-4.8 21.3-15.7 20.8-28.1m8.2-18.8c-1.2-2.1-2.4-7-4.4-7.3a401 401 0 0 0-33-3.6 39 39 0 0 0-10.8.5c-2.9.6-7.7 2.1-7.9 3.7-.6 4.1-1.9 10.5 4.4 11.6 9.2 1.6 18.6 3 27.8 2.3 7.4-.6 14.6-4.3 23.9-7.2M341.2 508.5c19.4 3.6 38.9 7 58.2 11 2.3.5 5.2 4.1 5.6 6.6 1.2 7.1 1.4 14.5 1.8 21.7A36 36 0 0 1 394 577c-18.5 16.8-40.7 25.5-65.5 21.2a66 66 0 0 1-46-31.1q-7.2-11.6-13.3-23.8c-3.8-7.5.9-17.9 8.9-21.2a129 129 0 0 1 62.6-11.3zm-5.5 40.3.2-2.1c6 0 12.1.8 18-.2a340 340 0 0 0 33.2-7.7c5.7-1.6 5.1-7.3 3.3-11.2-1.3-2.8-5.3-5.8-8.2-5.9-7.6-.2-15.3 1.5-23 1.7-13.2.3-26.4-.3-39.5.1q-11.7.5-23.2 3.2c-3.1.8-5.6 4.4-8.3 6.8 3 3.3 5.5 8.7 9.1 9.5 12.6 2.8 25.6 4 38.4 5.8m-34.4 7.6-1.8 2.6c2.6 3.3 4.8 6.9 7.7 9.7q4.6 4.3 10 7.5c19 11.8 39.7 14.2 59.2.2 7.6-5.5 12-13.3 15.5-21.6 1.6-3.7-.1-6.2-4.4-5.9q-3.1.5-6.2 1.1c-17.6 2.2-35.1 4.6-52.8 6.3-8.9.7-18.1.1-27.2.1M633.5 552.4c1.4-5.8 3.4-15 5.9-24a9 9 0 0 1 4.6-4.9q24.3-8.7 49-16.3c5.1-1.5 10.9-.7 16.3-.6 15.6.3 31.3.1 44 11.7a25 25 0 0 1 8.7 20.5 40 40 0 0 1-14.2 31.3 72 72 0 0 1-41.6 18.6c-13.6 1.2-27.6.2-41.2-1.3-14.3-1.4-31.7-19.9-31.5-35m23.7-10.2c4.1.7 7.9 1.7 11.8 1.8 22.2.5 44.4 1.2 66.6.9 4.5-.1 10.6-3.1 12.9-6.8 3.9-6-2-11.1-5.3-15.9-3.1-4.4-7.1-7-12.7-3.2-1.3.9-3.6.6-5.3.3a74 74 0 0 0-48.3 6.9 24 24 0 0 1-9.6 3.1c-7.8.4-10.6 4.4-10.1 12.9m-4.9 12.4-1.2 3.7c8.9 8.1 15.7 18.5 29.6 20.4a96 96 0 0 0 40-4.4c7.4-2.1 13.8-8 20.2-12.7 1.7-1.2 2-4.3 3.2-7z"/>
  </g>
</svg>
