<svg xmlns="http://www.w3.org/2000/svg" width="1000" height="1000" viewBox="0 0 1000 1000" xml:space="preserve">
  <path fill-rule="evenodd" clip-rule="evenodd" d="M371.6 520.3 361.2 237c-.2-6.3-1.1-12.7-1.7-19-1.2-14.3 3.1-25.1 16.3-33.2a717 717 0 0 1 174.3-79c20.8-6.1 41-14.3 62-19.3 19-4.6 31.7 5.2 29.1 24.5a190 190 0 0 1-17.6 61.8c-30 57.7-51.4 118.4-73.4 179.4-17 47-33.6 93.8-41.4 143.2a340 340 0 0 0-2.4 64.6c.5 13.9.5 24.6-15.1 30.6-28.4 11.1-56 24.2-84.3 35.3-13.9 5.5-24.8-.5-27.1-15.4-4.6-29.8-7.5-59.9-11.1-89.8zM468.2 913.3c-49.2 1.9-97.8-46.5-85.5-101.2 10.5-47 37.2-83.2 88.3-97.1 42.5-11.6 73.6 5.5 101.1 33.7a42 42 0 0 1 11.5 28.5c-2.7 37-6.8 74.3-34.6 103-4.6 4.8-11 8.4-17.1 11.1q-30.8 13.5-61.9 26.3z"/>
  <path fill-rule="evenodd" clip-rule="evenodd" fill="#fff" d="m395 457.1-3.2.3c3.2 36.4 5.2 73 10.2 109.1 3.2 23 5.3 22.7 28.3 18.6 33.4-6 34.2-5.8 40.6-39a862 862 0 0 1 52.9-176.2c18.9-44.3 34.1-90 52.6-134.5 11.9-28.7 27.9-55.6 39.3-84.5 3.6-9.1.7-23-3.9-32.4-5.6-11.5-17.5-8.1-28.2-4.4-40 13.7-80.7 25.7-120.2 40.6-25.1 9.5-48.9 22.5-72.6 35.2-5.6 3-11.8 11.1-11.9 16.9a977 977 0 0 0 2 88.9c4 53.8 9.4 107.6 14.1 161.4M486.4 879c1.8-.1 5.6 0 9.3-.5 26.8-3.4 49-16.3 57.4-41.7 8.2-24.9 16.8-51.6-8-75.5-29.9-28.8-69.8-35-100.7-12.6-5.5 4-11.6 7.1-16.7 11.5-6.4 5.6-14.9 11-17.6 18.3-17.7 47.3 22.4 100.7 76.3 100.5"/>
</svg>
