<svg xmlns="http://www.w3.org/2000/svg" width="1000" height="1000" viewBox="0 0 1000 1000" xml:space="preserve">
  <g fill-rule="evenodd" clip-rule="evenodd">
    <path d="m299.5 495.2 20.6-9.8c25.5-12.1 50.9-24.4 76.6-36a54 54 0 0 1 20.2-4.3c9.2-.3 16-2.5 18.9-12.2q1.7-5.6 4.9-10.5c1.2-1.9 3.7-3.1 5.6-4.6.6 2.4 2.4 5.1 1.7 7-3.5 9.7-7.8 19.2-11.4 28.9-1.1 2.9-.7 6.3-1.2 9.4q-.3 2.9-1.6 5.3c-3.1 5.6-7.3 10.7-9.5 16.6a307 307 0 0 0-21.1 119 89 89 0 0 0 7.9 33.8c5.2 11.4 17.8 15.2 29.6 15.8q25.6 1 51-1c27.1-2 54.3-4.4 81.3-8.1 24.1-3.3 48.5-6.5 71.6-13.6 15.3-4.7 29.1-15.5 42.5-25.1 3.3-2.3 4.9-11.2 3.2-15.5-8.6-21.9-16.1-44.9-28.8-64.3-15.2-23.4-23.9-48.5-32.4-74.4-6.1-18.5-6.2-37.2-6.5-56.1 0-3.2 1.6-6.4 2.5-9.7l2.7.2 4.3 31.5c13.1 2.6 21.9 11.4 31.1 19.4 12.8 11.3 26.2 21.6 43.4 24.7 11.7 2.1 23.7 2.2 35.5 3.9 5.1.7 10 3.3 15 5l.6 3.2c-3.2 1.9-6.1 4.7-9.6 5.5q-7.7 1.7-15.5 1c-19.7-2.1-40.3-1-57.6-13.2-9.3-6.5-18.1-13.9-27-20.9-2.6-2-5-4.2-8.9-7.6 5.6 23.7 12.5 44.8 25.5 63.1a196 196 0 0 1 28.6 56.6c1.9 6.1 4.8 11.9 6.8 18 3.7 11.4 3 23.2-2.1 33.4-3 6-10.6 10.3-17 14-9.1 5.4-19 9.6-28.5 14.3-9.2 4.5-12.2 10-10.9 20.5 1 7.7 3.2 15.2 3.7 22.9.6 8.7-.2 17.5.1 26.3.4 13.9-.9 28 7.1 40.8 1.2 1.9-1.4 7.7-3.8 9.6-2 1.6-7.8 1.3-9.6-.5a31 31 0 0 1-10.3-18.3c-4-26.1-9.2-52.1-13.9-78.1l-1.7-9.6q-3.1 0-6 .4-35 5.3-69.8 11.1c-1.9.3-4.4 3.4-4.7 5.5a114 114 0 0 0 2.8 49.9c5 16.2 10.4 31.8 20.2 45.8q2.3 3.6 5.4 6.4c3 2.5 7.6 5.1 4.1 9.1-2.6 3-8.3 6.2-11.4 5.3-8.9-2.6-16.8-7.9-19.7-17.7-5-16.6-8.7-33.8-15-49.9s-14.7-31.4-23-46.6c-1.2-2.2-7.1-3-10.7-2.7-13.4.8-26.8 3.6-40.2 3.2a79 79 0 0 1-29.9-7.1c-12.9-5.9-18.6-18.4-21.2-31.8-7.1-35.7-1.4-70.8 7.1-105.5 3.5-14.1 8.3-27.8 12.8-41.6 1.9-5.7.8-7.8-5.7-8-35.3-.8-68.1 8.7-100 22.7-6.6 2.9-10.6 6.8-10 14.6q3.2 39.9 5.5 79.8c1 18.6.5 37.3 1.6 55.9 1.2 20.3.8 41.1 13.2 58.9 2.4 3.5.6 6.9-2.4 5.4-10.4-5-15.5 4.3-23 7.1-7.3 2.7-14.7 7.6-22.1 7.7-26.7.4-53.8 1-78.3-12a131 131 0 0 1-26.5-19.8c-2.6-2.3-3.1-8.2-2.9-12.3 1.5-24.9-3.8-48.9-9.2-72.9-3.8-17.2-6.5-34.8-11.9-51.5a396 396 0 0 0-21.4-52.3c-5.1-10.6-5.3-17.8.3-28.2 14.7-27.2 39.7-35.4 67.8-38.9q25.4-3 50.5-7.9a65 65 0 0 1 48.2 10.5c3.7 2.3 5.5 8.3 7.3 12.9a62 62 0 0 1 3.5 32.2c-.1 1.8.6 3.3 1.1 6m-153.9 23.7c.2 2.2 0 4 .5 5.7 5 17.1 10.4 34.1 15 51.3 4 14.7 8 29.5 10.6 44.5 3.7 20.9 6.5 42 3.3 63.4a10 10 0 0 0 3.2 7.9q9.1 6.6 19 12.1c25.6 14.6 54.1 14.4 82.3 15.1q3.1.1 6-1.3c9.1-4.5 16.4-10.3 11.3-21.5a55 55 0 0 1-4.5-18.8q-1.8-29.8-2.7-59.7l-3.3-110.4q-.1-9.7 0-20-2.8.6-2.9.8c-15.4 18.3-36 25.3-58.8 28.8-26.1 3.8-52 4.4-79 2.1m51-9.2.2 1.5c14.3-1.8 28.7-3.2 43-5.5a58 58 0 0 0 39.7-24.8c7.2-10.3 6.7-24.7-2.8-29.2a66 66 0 0 0-37-6.1c-19 2.6-38 5-56.6 9.1-17.7 4-35.9 7.8-47.4 24.8-6.3 9.4-4.4 20.9 6.7 24.2 13.3 4 26.7 8.8 41.1 6 4.2-.7 8.7 0 13.1 0"/>
    <path d="M108.1 689.1c0 11.8-.4 23.6.1 35.3.5 13.9 2.2 27.8 2.6 41.7.2 7.4-.8 14.9-1.8 22.3-.7 5.7.2 9.3 7 8.7 27.1-2.4 54.1-.4 81.1.1 8 .2 16-1.4 24.1-1.5 20.2-.2 40.4.5 60.6 0 26.9-.6 53.9-2 80.8-2.9 7.3-.2 9.3-3.9 8.8-10.5-.6-8.6-.8-17.3-1.4-25.9q-2.1-25.2-4-50.3c-.3-5.3.5-10.8 1.1-16.1.9-7.2 6.5-8.6 11.9-7.2 2.6.7 5.4 5.4 5.8 8.5q2.5 22.4 3.6 44.9 1.2 24.8 1.6 49.7c.4 19-5.4 24.6-24.4 24.5q-25.2 0-50.4.5-45.2.7-90.2 1.8c-16 .4-32 1.9-48 2-18.8.1-37.7-.9-56.5-1.1-6.2-.1-12.4.7-18.6.7-4.8.1-7.6-1.9-7.6-7.5q-.4-39.6-1-79.2c-.1-5.9.9-11.9.8-17.8-.1-9.6 6.3-15.2 11.5-21.6q1.3.6 2.5.9M786.5 399.2c10.9 10.8 23.6 19.9 39.2 16.1a95 95 0 0 0 30.3-16c11.8-8.3 23-17.7 27.2-32.9 1.6-5.9 7.3-6.1 11.4-1.2q3 3.6 5 7.8c11.3 24.6 16.9 50.2 10.8 77.1-3.8 16.6-10 31.9-26.4 40.8-6.1 3.3-11 8.8-17 12.2a12 12 0 0 1-10.3-.3 34 34 0 0 1-10.6-11c-8.9-15.4-23.5-21.5-39.7-24.6-2.8-.5-8.2 2.9-9.5 5.8-3.2 7.2-5.1 15.1-6.8 22.9a90 90 0 0 0 6.3 58.3c7 15.4 2.5 31-2.8 46.1-1.1 3.2-2.8 6.1-4 9.3q-6.8 18-25.8 14.2c-6.8-1.5-13.5-3.8-20.2-5.6s-8.6-6.5-8.4-13c.9-32.6 9.1-63.9 16.9-95.3a2505 2505 0 0 0 20.1-90.3c2.1-9 5.3-16.2 14.3-20.4m-6.9 13.8c-.6 3.1-1.3 5.2-1.3 7.3-.4 31.8-12.8 61.2-17.9 92-2.7 16.2-7.1 32.1-9.6 48.3-2 12.8-2.4 25.8-3 38.8-.1 2.1 1.5 5.7 3.1 6.2q10.7 3.4 21.7 4.6c2.5.3 6.3-2 7.7-4.3 7.8-12.3 11.5-25.4 5.8-39.8-2-5.1-5.4-10.1-5.6-15.2q-.7-23.9.7-47.8a83 83 0 0 1 14.4-39.8c8.2-12.8 11.1-13.8 25.4-9.2 3.7 1.2 7.7 1.9 11 3.8 6.5 3.9 13.2 7.8 18.7 12.9 3.6 3.4 4.4 11.4 8.1 12.8 4.1 1.6 10.2-2 15.4-3.4q3-.7 5.8-2.2a37 37 0 0 0 21.7-27.5c4.5-24.5-3.3-46.5-12.3-68.5-.3-.8-1.4-1.3-2.4-2.2q-2 1.2-3.2 2.4c-13 16.5-30 28.3-46.8 40.4-15.4 11.1-30.6 11.5-45.8.1-3.6-2.6-6.9-5.8-11.6-9.7M583.5 220.2c8.7-1.2 17.4-3.1 26.1-3.4 17.9-.7 28 12 37.8 24.1 12.1 14.9 11.5 32.9 12.2 51 .9 24.6-14.8 41.1-26.1 60-4.5 7.5-8.1 15.8-13.7 22.3-11.2 12.8-22.8 25-38.9 32.5q-29.3 13.4-60.8 13.9c-21.3.4-43-.9-61.7-12.5-22.4-13.9-44.1-44.1-34.4-80 1.1-3.9 3.1-7.6 4.7-11.4 1.2 4.1 2.8 8.1 3.4 12.3a97 97 0 0 0 19.4 46.5c18.5 25 45 28.3 72.5 29.9a129 129 0 0 0 48.8-8.1 74 74 0 0 0 36.3-29.2 250 250 0 0 1 18.8-23.4 78 78 0 0 0 18-81.3c-5.8-17.9-26.6-41.3-54.3-41.1q-4.1-.1-8.2-.5zM461.2 267.2l10.7-35.1c.6-2 .9-4.1 1.8-5.9 2.7-5.9 5.6-6.4 9.6-1.4 2.6 3.2 4.6 6.9 7 10.3 4.3 6 6.4 5.9 9.8-.4q3-5.5 5.7-11.1c2.8-6 7-8.6 13.7-10.7 8-2.5 14.8-9 21.7-14.4 7.7-6 15-12.6 23.7-17.6q-8.5 9.3-17.1 18.2a479 479 0 0 1-21.8 21q-5.2 4.6-11.5 7.4c-7.8 3.4-9.2 10.7-11.7 17.4-.7 1.9-.4 4.3-1.3 6-1.2 2.4-2.9 5.7-5 6.2-1.8.4-4.8-2.1-6.5-4q-5.8-6.6-11.2-13.5h-3l-7.3 27c-.5 1.7 0 3.8-.7 5.4q-2.3 4.7-5 9.1c-2.7-1.6-5.7-2.8-8.1-4.9q-13.8-12-27.1-24.5c-1.8-1.7-2-5.2-2.9-7.9 2.9.7 6.4.6 8.7 2.3 8.8 6.2 17.5 13.1 27.8 21.1"/>
    <path d="M504.5 311.3c2.2-3.9 3.6-9.1 6.9-11.4 3.2-2.2 10.5-3.4 12.4-1.5 3.2 3.3 4.9 9.4 5 14.3 0 6.3-9.8 13.7-16.2 13-2-.2-4.5-2.4-5.3-4.3-1.1-2.7-.9-6-1.3-9.1zM478.5 324.8c.3 10.5-7.4 19.5-14.2 19.2-5.8-.3-8.7-3.4-7.4-9.1 1-4.2 2.3-8.7 4.8-12.1 1.9-2.6 6.6-5.9 8.7-5.2 3.7 1.3 6.4 5.5 8.1 7.2M200.5 544.7c2.5 10.6 5.7 20.4 7.1 30.4 3.2 22.2 5.3 44.6 8.4 66.9.9 6.2 4 12 5.9 18 .7 2.4.8 5.1 1.2 7.6-3.3-.3-8.2.5-9.5-1.3a30 30 0 0 1-5.4-13.5q-6.7-47.2-12.6-94.6c-.4-4.1-2.3-9.7 4.9-13.5M179 541.8c.8 2.3 1.9 4.5 2.4 6.8 2.8 13.6 5.8 27.3 8.1 41 1.8 11.2 2.4 22.6 4 33.8s4 22.3 6.1 33.5c.3 1.8 1.8 3.8 1.3 5.1-1 2.7-3 4.9-4.6 7.4-2-1.9-5.4-3.5-5.9-5.8a400 400 0 0 1-6.2-34.4q-4.9-37.3-9-74.8c-.5-4 .3-8.2.5-12.3zM181 465.7c-2.2 1.9-4.8 3.6-6.7 5.9-2.9 3.5-8.4 8.6-7.5 11 1.5 3.9 6.9 7.9 11.2 8.7 21 3.7 41.6-.5 62-5.8a19 19 0 0 0 7.1-4.5c4.5-4.1 3.9-8.9-1.3-12l-7.1-4c6.5-4.1 11.4-5.2 16.7-1.2 4.9 3.7 6.6 8.4 4 14.4-3.8 8.6-11.6 12.8-19.7 15.3-20.3 6.1-40.8 12.3-62.5 9.4l-9.9-1.8c-6.7-1.6-11.9-4.8-13.6-12.2s2.4-12.1 7.6-15.8c5.5-3.8 11.7-6.7 17.6-10q1 1.1 2.1 2.6"/>
    <path d="M192.3 490.3c-1.6-1.3-5.7-3-6.5-5.6-.8-2.7.8-8.3 2.9-9.2q14-6.2 28.9-9.7c5.3-1.2 8.1 4.5 5.1 9.4-6.5 10.6-17.4 13-30.4 15.1"/>
  </g>
</svg>
