<svg xmlns="http://www.w3.org/2000/svg" width="1000" height="1000" viewBox="0 0 1000 1000" xml:space="preserve">
  <g fill-rule="evenodd" clip-rule="evenodd">
    <path d="M284.8 474.6c-3 1.6-5.8 4.5-8 4-11.8-2.3-20.7 4.9-30.6 8.4-7.8 2.8-15 7.2-22.8 9.7-8.2 2.6-11.8 8.2-13.5 15.9q-6.1 28-12 55.9L176 678a537 537 0 0 0-5.4 33.7c-2 14.9-3.3 29.8-5.4 44.7-.3 2.3-3.1 5.5-5.2 5.9-2 .4-5.1-2-6.7-4-5.3-6.7-3.4-14.3-2.2-22 5.1-32.8 8.3-66 15.2-98.4 9-41.8 20.7-83 31.7-124.3 1.3-4.8 5.1-8.9 8-13.9-.9-.8-2-2.4-3.1-2.5-14-.9-27.9-2-41.9-2.3-11.1-.3-11.7-.4-11.8-12-.3-25.5-.2-51-1.1-76.5-.5-14.7-2.5-29.4-4.1-44-1.3-12 5.7-19.6 14.8-24.5a204 204 0 0 1 42.9-18.9c14.9-4 30.9-4.8 46.5-4.9 23-.1 46 1.6 69 2.6q8.8.3 17.5 1.6c1.5.3 3.7 2.6 3.9 4.2.4 3.9.6 8.2-.6 11.7-1.3 3.6-4.5 6.6-6.8 9.9-1.7-3-4.2-5.7-4.9-8.9-1.5-7.5-5.7-9.7-13-9.7-9.5.1-19-1.5-28.5-1.8-20.9-.6-41.7-.7-62.6-1.2-8.1-.2-11.9 3.3-13.7 11.5a245 245 0 0 0-1.6 86.2q3.7 26.9 8 53.6c1.7 10.2 3.8 11.4 13.8 8.2 13.5-4.3 27-8.6 40-14.1 8-3.5 11.9-.6 16.1 6.7m-86.5 6.7c-6.9-23.8-7.4-49.2-7.8-74.8-.4-25.8-.2-51.4 9-78.8-10.5 4.1-18.4 6.6-25.7 10.1-16.9 8.2-18.1 10.8-16.3 29.7 3.3 34.2 7.7 68.4 5.1 102.9-.5 6.4 1.7 8.7 8.3 8.7 9 .2 18 1.5 27.4 2.2"/>
    <path d="m219.4 597.7-5.6-21.8c-.4-1.5-1.3-3.4-.7-4.4 7.4-13.4-2-27.6 2.3-41.3 2.2-6.9 1.7-14.6 3.6-21.6 1.4-5.5 6-9.5 11.8-7.6 2.1.7 3.4 6.2 3.9 9.6 1.6 10.5 2.6 21.1 3.9 31.7.2 1.5 1.2 3 1.2 4.5q-.1 33.5-.5 67.1c-.2 11.6-1 23.2-1.5 34.9q-2 42-3.7 84.1c-.4 9.8.4 19.6-.2 29.4-.8 15-2.8 29.8-3.5 44.8-.4 9.7.7 19.5 1.1 29.3.2 4.6.8 9.2.1 13.7-.4 2.4-3 6.1-5 6.3a11 11 0 0 1-8.5-3.4 27 27 0 0 1-6.5-23.2c6.5-33.3 4.7-66.9 4.4-100.4-.1-11-1.5-22.1-1.5-33.1q.3-32.6 1.3-65.1c.3-11 1.2-22 1.8-33zM270 414.4c1.1-18 8-33.5 16.1-48.4 7.2-13.2 19.5-17.6 34-17.8a120 120 0 0 0 24.6-3c20.1-4.5 33.6 5.2 45.2 19.7 10.6 13.3 9.4 27.1 3.8 42.5a73 73 0 0 1-29.2 38.8c-2.3 1.5-4.6 3.8-7.1 4.1a47 47 0 0 0-24.6 10.9c-19.4 15.7-47 6.6-55.5-16.6-3.5-9.6-4.9-20.1-7.3-30.2m57.2-29.3c1 19 4.3 34.1 14.9 46.8 4.2 5.1 8.8 6.8 15.4 4.7 24.2-7.4 35.7-44.6 19.8-65.1q-5-6.7-11.1-12.3c-9.2-8.6-27.8-5.6-32.9 5.8-3.1 7.2-4.6 15.1-6.1 20.1m4.8-27.9c-7.9.6-14.5 1.3-21.2 1.5-8.7.1-14 4.2-18 11.8-12.3 23.5-8.1 45.8 3.6 67.9q12.6 23.7 36.4 10.9c-17.3-30.1-27.3-60.3-.8-92.1M253.2 507.6c2.4 2.8 5.6 5.1 6.9 8.2 8.2 20.2 16.5 40.4 23.8 60.9a525 525 0 0 1 12.6 43.3c10.3 38.8 28 74.7 43.9 111.3.7 1.7 2.3 3.4 2.2 5-.2 3.1-1.2 6.1-1.9 9.1-2.5-1.2-5.6-1.8-7.4-3.7-14.5-14.1-24.1-31.8-33.1-49.5q-12-23.4-20.2-48.4c-7.9-24.2-13.5-49.1-21-73.5a392 392 0 0 0-15.8-41.4c-3.3-7.7-.9-13 4.4-18.1 1.4-1 3.2-1.7 5.6-3.2M251.1 335.1c13.2-.3 14.6 1.6 10.9 14.2-1.1 3.8-1.5 8.3-3.8 11.2-3.1 3.9-7.5 8.3-12 9.3-6 1.4-12.8.4-19.1-.8-1.9-.4-4.4-4.7-4.4-7.2.1-18.1 9-26.3 28.4-26.7m-16.2 13.7c3 6.2 4.6 13.2 12.4 10.1 2.3-.9 4.8-7.9 3.6-9.8-4.2-6.4-9.9-3.2-16-.3"/>
  </g>
  <g fill-rule="evenodd" clip-rule="evenodd">
    <path d="M582.2 431.1c-6 8.2-12.5 16.1-17.6 24.9a31 31 0 0 0-4.7 16.9c1.3 17.8 3.8 35.4 6.1 53.1.6 4.5 2.3 8.9 3.6 13.7 2-.3 4 0 4.7-.8 14-15 33-13.6 50.6-14.6 42.7-2.6 85.4-3.6 128.2-5.2q3.8-.3 7.4-.1c12.3 1.2 16.2 5.6 15.1 17.8q-1.7 16.3-4 32.5l2.3 1c3.5-4.1 7.4-7.8 10.4-12.2 10.4-15.3 20.3-30.8 30.7-46.1a16 16 0 0 0 1.2-17.3l-21.1-44.1c-1-2.2-2.8-4.9-2.3-6.8 1.1-4.2 3.5-8.1 5.4-12 2.6 2.5 6.1 4.6 7.5 7.6 8 16.6 15.3 33.5 23.3 50.1 3.9 8.2 9.3 15.7 12.8 24 2.9 7 3.3 15 6.1 22 6.2 15.3 13.9 30 19.8 45.4a592 592 0 0 1 15.7 48.9c3.5 12.5 7.8 25.4 8.2 38.2a37 37 0 0 1-16.2 32.5c-7.9 5-18.4 6.3-28 8.2-11.7 2.4-23.7 3.9-35.5 5.5-6.4.9-10.2 4-13 10-15.6 34-24.4 70.1-32.9 106.3-.6 2.6-1.4 5.7-3.2 7.4-2.2 2.1-6.1 4.4-8.4 3.8-2.1-.6-4.6-5.3-4.2-7.9q2.7-17.3 6.6-34.4 7.6-33.2 15.6-66.5c.7-2.9.8-5.8 1.3-9.3H640.3l5.2 34.6q.3 2.4 1.4 4.4c14 23 22.6 49.4 42.7 68.7 1.4 1.3 1 7.2.4 7.4-3.7 1.1-9.4 3-11.4 1.2a91 91 0 0 1-16.1-18.8q-24.7-39-49-78.1l-3.1-4.6c-6.7-11.8-16.2-17.3-30.3-18.8a796 796 0 0 1-76.5-12.3c-9.7-2-20.1-5.9-27.3-12.3a51 51 0 0 1-12.1-24c-8.4-30-2.4-59 10.6-86.1a679 679 0 0 1 41.4-74c13.6-21.1 30-40.5 45.3-60.5q8.7-11 17.5-21.9zM536 503.5c-3 2.6-4.9 3.7-6.1 5.3-26.5 36.5-49.5 74.7-55.5 120.6-.7 5.7 1.2 11.7 1.9 17.6.4 3 1.4 6 1 8.9-2 14.4 2.6 25.2 16.6 29.6 14.8 4.6 30.4 6.9 45.8 9.4 30 5 59.7 11.2 90.5 10.4 35.6-.9 71.3 2 106.9 1 25.4-.7 50.7-4.5 76-7.8q26-3.6 51.6-9.7c13.4-3.1 16.4-8 15.2-21.9-2.5-28.9-13.8-55.2-25.6-81.2-2.9-6.4-5.3-13-8-19.4q-4.4-10-9-20c-1.7-3.7-3.7-10.1-5.6-10.1-4.3 0-9.4 2.3-12.8 5.2-8.8 7.6-16.1 17.3-25.5 24-15.2 10.9-25.3 23.5-24.6 43.3.6 16.1-.1 32.3-.5 48.5-.1 3.5-.1 8-2.2 10.3-11.5 12.6-25.8 15.6-42.3 11.5-23.8-5.9-47.6-12.3-71.7-16.7-26.5-4.8-53.5-7.4-80.2-11.2-5.2-.7-10.6-1.4-15.2-3.6-3.3-1.5-7.5-5.5-7.6-8.5-.5-11.5.3-23.1 1.1-34.6 1.4-18.6 16.9-35.3 5.4-55.8-7.8-13.7-12.8-29-19.6-45.1m140 33.9c-29.8-4.3-57.5-.5-85.2 4-8.5 1.4-11.2 6.1-13.7 12.6-4.1 10.5-7.9 21.1-12.5 31.4-6.4 14.2-11.3 28.5-7.4 44.2.5 1.9 3.2 4.4 5.2 4.6 25.8 3.5 51.7 6.3 77.5 10.1 32.4 4.7 65.6 5.9 96 20.4 6.4 3.1 10.8.6 12-6.6.7-4.6.9-9.2 1.5-13.8 4.2-32 8.7-64 12.6-96 1.7-13.4-1.1-15.5-14.7-14.7-24.4 1.5-48.7 2.6-71.3 3.8"/>
    <path d="M579.5 319c0 8.5.7 17-.1 25.4-1.6 16.6 6.3 30.2 14.6 42.8 12 18.2 27.4 33.2 49.6 39.3 7.1 1.9 13.4 7.2 20.5 8.1 13.6 1.8 27.5 3 41.1 1.9 15.5-1.3 30.8-5.3 46.3-8.1 29.3-5.3 51.7-20.9 70.5-43.8a226 226 0 0 0 43.1-75.6 80 80 0 0 0-3.5-55c-2.9-7.1-6.6-13.9-9.2-21.2-5.4-14.9-17.4-22.4-30.5-29.1a120 120 0 0 0-53.7-10.9 14 14 0 0 1-8.4-2.5c3.8-1.5 7.4-3.4 11.3-4.3 29.9-6.9 56 1.7 79.5 20a40 40 0 0 1 9.6 12.3c19.9 35.4 23.6 71.6 6 109.4a351 351 0 0 1-50.5 77.8 116 116 0 0 1-68.5 38.7 607 607 0 0 1-62.8 9.7A86 86 0 0 1 651 450a191 191 0 0 1-40-18.4 89 89 0 0 1-39.1-56.4c-3.9-16.1-.1-34.1.6-51.2.1-2 2.5-3.8 3.8-5.7zM657.7 245.2l-12.3-15.3-9.2-12.1-3.8 1.9q-5.4 19.9-11.3 39.5a68 68 0 0 1-9.1 19.9c-2 2.8-9.7 4.9-12.3 3.2a60 60 0 0 1-26.8-32.8l11.8 13c17.2 18.9 24.8 17.5 33-6.5 5-14.8 9.3-30 14.1-44.9.8-2.4 2.4-5.7 4.2-6.2s4.9 1.7 6.5 3.6c5.3 5.9 10.1 12.1 16.7 20.2l26.4-61.5 2.8.6c5.7 13.7 8.7 28.9 21.2 38.6 7.6-12.1 13.7-24.9 22.8-35.2s21.2-18.1 32-27l2.1 2.4c-2.6 2.1-5.5 4-7.8 6.4-11.5 12.2-23.8 23.9-34 37.1-4.5 5.9-4.6 15.1-7.3 22.5-1.3 3.5-4.1 6.4-6.2 9.6-2.9-2-6.5-3.5-8.4-6.1-6.8-9.8-13-19.9-20.6-31.8-8 19.8-15.8 39-24.5 60.9"/>
    <path d="M690.7 294c2.6-1.6 5.5-2.9 7.8-4.9 4.1-3.8 7-2.6 9.8 1.4 6.5 9.4 5 17.6-4.9 23.3a59 59 0 0 1-12.8 5.1q-13 4-11.9-9.2.7-6.9 3.7-13.2c1.1-2.3 4.3-3.5 6.6-5.2q.7 1.4 1.7 2.7M618.5 327.1c.1-12.7 7.4-24.4 15.7-26.1 2.7-.6 8.1 2.9 9.3 5.7 4.3 10.1-8.6 27.8-19.5 26.7-2.7-.2-4.8-5.5-5.5-6.3M718.5 573.4h-17.7l-2-3.1c3.1-3.3 5.8-7.4 9.6-9.7 2.9-1.8 7.3-2.3 10.7-1.7 5.5.9 12.6 1.8 15.5 5.5 2.1 2.6-.8 10.2-3.1 14.8-2.7 5.5-3.5 9.6 1.5 13.8 16.9 14.2 3.5 43.9-15.1 50-8.3 2.7-15.8-.5-22.4-5.4-1.3-.9-2.1-4-1.5-5.4s3.2-2.8 5-2.9c4.6-.3 9.2.4 13.8.1 9.6-.5 15.4-5.6 15.3-12.7-.2-7.6-5.2-12-15.2-12.2-8.1-.2-11.2-3.3-7.4-10.7 3.5-6.6 8.1-12.7 13-20.4M638.8 573c1.7-10.9 18.4-18.7 25.6-12.3 1.9 1.7 2.9 5.7 2.4 8.3-2 8.9-4.7 17.7-7.3 26.5q-2.3 7.2-5 15c7.2 1.5 13.6 2.2 19.6 4.2 2.7.9 4.6 4.3 6.8 6.5-2.7 1.5-5.2 3.9-8 4.5a935 935 0 0 1-37.8 7.5c-2.8.5-7 .9-8.4-.7s-1.3-6.3.1-8.3c4.6-6.4 9.1-13.4 15.3-18.1 9.5-7.1 11-17.4 13.7-27.3.4-1.6-3.6-5.7-6.2-6.5-3.3-.9-7.1.4-10.8.7M605.7 566.8c-2.7 17.5-4.7 33.3-7.9 48.8-.7 3.5-6 8.8-8.7 8.5-5.6-.6-5.5-6-4-11 4.4-15.3 8.4-30.7 13-45.9.6-2 3.4-3.3 5.2-4.9z"/>
  </g>
</svg>
